{"glyphs":{"0":{"ha":766,"x_min":57,"x_max":708,"o":"m 387 893 q 619 765 530 893 q 708 433 708 637 q 612 96 708 222 q 382 -29 516 -29 q 150 99 242 -29 q 57 427 57 228 q 152 770 57 647 q 380 893 248 893 l 387 893 m 585 435 q 527 675 585 581 q 382 770 469 770 q 235 676 292 770 q 178 431 178 583 q 235 188 178 279 q 385 96 293 96 q 529 190 473 96 q 585 435 585 283 z "},"1":{"ha":766,"x_min":180,"x_max":444,"o":"m 220 861 l 444 861 l 444 0 l 328 0 l 328 747 l 180 747 l 220 861 z "},"2":{"ha":766,"x_min":74,"x_max":677,"o":"m 335 115 l 664 115 l 664 0 l 74 0 l 514 468 q 564 587 564 522 q 511 720 564 664 q 389 777 459 777 q 279 739 330 777 q 212 624 228 702 l 98 624 q 199 822 115 751 q 396 893 283 893 q 593 804 509 893 q 677 593 677 715 q 656 485 677 534 q 581 378 635 435 l 335 115 z "},"3":{"ha":766,"x_min":83,"x_max":672,"o":"m 235 669 l 109 669 q 194 836 121 779 q 372 893 268 893 q 571 825 492 893 q 650 653 650 756 q 519 457 650 525 q 672 240 672 378 q 589 52 672 132 q 392 -28 506 -28 q 194 30 277 -28 q 83 211 110 87 l 212 211 q 385 77 254 77 q 500 122 451 77 q 550 229 550 168 q 505 346 550 293 q 355 401 459 399 l 355 509 q 480 548 435 510 q 525 644 525 585 q 483 747 525 705 q 380 789 441 789 q 290 760 323 789 q 235 669 256 732 z "},"4":{"ha":766,"x_min":17,"x_max":690,"o":"m 607 890 l 607 271 l 690 271 l 690 170 l 607 170 l 607 0 l 501 0 l 501 170 l 17 170 l 607 890 m 498 615 l 224 271 l 501 271 l 501 615 l 498 615 z "},"5":{"ha":766,"x_min":43,"x_max":663,"o":"m 273 865 l 663 865 l 663 749 l 364 749 l 318 583 q 378 589 370 589 q 576 498 492 589 q 661 285 661 407 q 565 63 661 154 q 329 -28 468 -28 q 43 126 152 -28 l 149 193 q 334 96 227 96 q 480 151 422 96 q 538 290 538 206 q 478 428 538 372 q 330 484 418 484 q 239 465 278 484 q 154 406 201 446 l 273 865 z "},"6":{"ha":766,"x_min":66,"x_max":696,"o":"m 433 911 l 524 848 l 334 571 q 367 574 357 574 l 392 575 q 604 489 513 575 q 696 290 696 403 q 605 64 696 157 q 383 -29 514 -29 q 159 62 252 -29 q 66 282 66 153 q 125 465 66 381 l 433 911 m 572 286 q 516 422 572 365 q 382 479 459 479 q 247 421 304 479 q 189 286 189 363 q 245 151 189 206 q 382 96 301 96 q 517 151 461 96 q 572 286 572 207 z "},"7":{"ha":766,"x_min":36,"x_max":749,"o":"m 36 867 l 749 867 l 140 -41 l 50 18 l 539 753 l 36 753 l 36 867 z "},"8":{"ha":766,"x_min":85,"x_max":681,"o":"m 549 447 q 648 351 616 409 q 681 232 681 293 q 594 48 681 125 q 383 -28 507 -28 q 171 48 258 -28 q 85 232 85 123 q 211 447 85 363 q 133 539 157 494 q 109 646 109 585 q 190 819 109 745 q 380 893 271 893 q 572 820 490 893 q 653 648 653 747 q 549 447 653 534 m 529 643 q 486 747 529 704 q 380 790 442 790 q 276 747 319 790 q 232 643 232 704 q 276 539 232 582 q 380 496 319 496 q 486 539 442 496 q 529 643 529 582 m 557 235 q 504 347 557 300 q 378 393 452 393 q 257 347 306 393 q 208 232 208 300 q 259 120 208 165 q 387 75 311 75 q 508 121 458 75 q 557 235 557 168 z "},"9":{"ha":766,"x_min":69,"x_max":697,"o":"m 334 -45 l 241 20 l 432 296 q 371 290 392 290 q 156 377 243 290 q 69 590 69 463 q 164 804 69 713 q 385 896 258 896 q 603 803 509 896 q 697 586 697 709 q 633 393 697 486 l 334 -45 m 575 578 q 519 715 575 658 q 385 772 463 772 q 246 716 302 772 q 191 575 191 659 q 250 443 191 498 q 392 387 309 387 q 522 443 469 387 q 575 578 575 498 z "}," ":{"ha":383,"x_min":0,"x_max":0,"o":""},"!":{"ha":304,"x_min":78,"x_max":225,"o":"m 92 864 l 205 864 l 205 214 l 92 214 l 92 864 m 78 61 q 100 113 78 91 q 151 135 121 135 q 203 113 182 135 q 225 61 225 91 q 203 9 225 31 q 151 -12 182 -12 q 99 9 121 -12 q 78 61 78 31 z "},"\"":{"ha":493,"x_min":64,"x_max":429,"o":"m 98 642 l 64 832 l 64 994 l 204 994 l 204 832 l 172 642 l 98 642 m 322 642 l 290 832 l 290 994 l 429 994 l 429 832 l 396 642 l 322 642 z "},"#":{"ha":928,"x_min":61,"x_max":867,"o":"m 61 660 l 282 660 l 340 933 l 422 933 l 364 660 l 650 660 l 707 933 l 790 933 l 732 660 l 867 660 l 867 576 l 715 576 l 664 325 l 867 325 l 867 241 l 647 241 l 590 -31 l 507 -31 l 566 241 l 278 241 l 221 -31 l 138 -31 l 195 241 l 61 241 l 61 325 l 212 325 l 265 576 l 61 576 l 61 660 m 347 576 l 294 326 l 582 326 l 633 576 l 347 576 z "},"$":{"ha":766,"x_min":90,"x_max":681,"o":"m 363 997 l 424 997 l 424 893 q 659 766 587 869 l 562 690 q 424 768 509 762 l 424 529 q 632 382 583 462 q 681 231 681 302 q 613 59 681 133 q 424 -26 546 -16 l 424 -158 l 363 -158 l 363 -26 q 195 50 256 -7 q 90 210 134 107 l 212 241 q 275 145 243 175 q 363 104 308 115 l 363 419 q 143 672 143 504 q 202 813 143 752 q 363 893 260 875 l 363 997 m 363 557 l 363 765 q 291 730 316 755 q 265 671 265 705 q 363 557 265 598 m 424 392 l 424 98 q 521 142 487 106 q 555 232 555 178 q 424 392 555 332 z "},"%":{"ha":1157,"x_min":40,"x_max":1116,"o":"m 40 644 q 93 825 40 758 q 235 892 146 892 q 376 826 325 892 q 428 643 428 760 q 376 466 428 531 q 235 401 323 401 q 93 467 145 401 q 40 644 40 532 m 334 652 q 237 802 334 802 q 132 643 132 802 q 159 530 132 570 q 233 490 185 490 q 310 529 286 490 q 334 652 334 568 m 842 892 l 930 892 l 325 -61 l 235 -61 l 842 892 m 733 168 q 784 361 733 294 q 928 428 834 428 q 1064 363 1013 428 q 1116 189 1116 298 q 1065 4 1116 69 q 924 -61 1015 -61 q 785 1 838 -61 q 733 168 733 63 m 1023 180 q 926 339 1023 339 q 823 193 823 339 q 847 66 823 105 q 924 26 870 26 q 1023 180 1023 26 z "},"&":{"ha":926,"x_min":56,"x_max":890,"o":"m 450 468 l 631 277 l 728 383 l 811 309 l 708 193 l 890 1 l 736 1 l 633 110 q 349 -31 488 -31 q 142 44 229 -31 q 56 220 56 118 q 94 345 56 296 q 272 489 133 394 q 250 519 259 508 q 179 631 191 595 q 168 694 168 667 q 229 832 168 770 q 390 895 289 895 q 540 835 478 895 q 602 690 602 775 q 450 468 602 568 m 371 550 q 460 623 431 591 q 490 690 490 654 q 462 757 490 732 q 386 782 434 782 q 312 758 341 782 q 283 696 283 733 q 371 550 283 642 m 555 193 l 353 408 q 207 296 237 334 q 176 221 176 259 q 227 123 176 164 q 349 82 277 82 q 449 109 402 82 q 555 193 495 136 z "},"'":{"ha":265,"x_min":62,"x_max":203,"o":"m 94 642 l 62 828 l 62 994 l 203 994 l 203 828 l 170 642 l 94 642 z "},"(":{"ha":376,"x_min":74,"x_max":307,"o":"m 212 892 l 307 848 q 205 592 233 704 q 178 338 178 480 q 204 55 178 174 q 301 -214 231 -65 l 212 -264 q 74 307 74 3 q 103 602 74 467 q 212 892 132 736 z "},")":{"ha":376,"x_min":60,"x_max":297,"o":"m 60 848 l 153 892 q 297 309 297 646 q 160 -268 297 9 l 66 -218 q 172 79 151 -25 q 192 319 192 184 q 164 592 192 473 q 60 848 136 711 z "},"*":{"ha":608,"x_min":58,"x_max":550,"o":"m 318 733 l 339 722 q 407 786 376 749 q 456 834 438 823 q 494 846 474 846 q 534 830 518 846 q 550 790 550 814 q 528 746 550 760 q 448 723 507 732 q 354 694 390 713 l 353 672 q 455 642 401 650 q 529 619 509 633 q 550 574 550 604 q 533 534 550 551 q 493 518 517 518 q 414 574 460 518 q 338 646 363 634 l 318 636 q 339 548 319 601 q 358 473 358 496 q 343 428 358 446 q 302 411 328 411 q 262 429 278 411 q 245 472 245 446 q 266 548 245 493 q 286 636 286 602 l 268 646 q 191 568 233 618 q 114 517 149 517 q 75 534 92 517 q 58 572 58 551 q 160 646 58 629 q 252 673 219 655 l 253 694 q 159 721 217 711 q 80 747 102 730 q 58 790 58 764 q 74 831 58 814 q 111 848 90 848 q 148 838 132 848 q 197 789 164 827 q 268 724 230 751 l 286 734 q 265 823 285 770 q 245 896 245 876 q 261 938 245 921 q 301 954 277 954 q 342 938 326 954 q 358 896 358 922 q 339 821 358 875 q 318 733 320 768 z "},"+":{"ha":926,"x_min":93,"x_max":832,"o":"m 93 493 l 416 493 l 416 818 l 505 818 l 505 493 l 832 493 l 832 404 l 505 404 l 505 82 l 416 82 l 416 404 l 93 404 l 93 493 z "},",":{"ha":304,"x_min":18,"x_max":283,"o":"m 138 171 l 283 114 l 123 -233 l 18 -192 l 138 171 z "},"-":{"ha":463,"x_min":74,"x_max":389,"o":"m 74 338 l 389 338 l 389 222 l 74 222 l 74 338 z "},".":{"ha":304,"x_min":58,"x_max":241,"o":"m 58 79 q 85 144 58 117 q 150 171 112 171 q 214 144 187 171 q 241 79 241 117 q 215 15 241 41 q 150 -12 188 -12 q 85 14 112 -12 q 58 79 58 41 z "},"/":{"ha":694,"x_min":36,"x_max":679,"o":"m 602 1007 l 679 1007 l 117 -306 l 36 -306 l 602 1007 z "},":":{"ha":304,"x_min":58,"x_max":241,"o":"m 58 379 q 85 444 58 418 q 150 471 112 471 q 215 444 188 471 q 241 379 241 417 q 215 314 241 341 q 150 288 189 288 q 85 314 112 288 q 58 379 58 341 m 58 81 q 85 146 58 119 q 150 174 112 174 q 214 146 187 174 q 241 81 241 119 q 214 16 241 43 q 150 -11 187 -11 q 85 16 112 -11 q 58 81 58 43 z "},";":{"ha":376,"x_min":49,"x_max":318,"o":"m 127 382 q 155 447 127 420 q 220 473 182 473 q 284 447 258 473 q 311 382 311 420 q 284 316 311 343 q 220 289 258 289 q 154 316 181 289 q 127 382 127 343 m 172 174 l 318 115 l 153 -232 l 49 -187 l 172 174 z "},"<":{"ha":926,"x_min":96,"x_max":831,"o":"m 831 100 l 96 410 l 96 490 l 831 800 l 831 703 l 215 450 l 831 196 l 831 100 z "},"=":{"ha":926,"x_min":94,"x_max":832,"o":"m 94 656 l 832 656 l 832 566 l 94 566 l 94 656 m 94 338 l 832 338 l 832 249 l 94 249 l 94 338 z "},">":{"ha":926,"x_min":94,"x_max":831,"o":"m 94 800 l 831 489 l 831 410 l 94 100 l 94 196 l 711 449 l 94 703 l 94 800 z "},"?":{"ha":534,"x_min":33,"x_max":485,"o":"m 345 403 l 460 403 q 383 252 441 303 q 248 200 324 200 q 119 246 169 200 q 69 364 69 292 q 89 443 69 408 q 139 502 108 479 q 243 559 170 526 q 343 625 316 593 q 371 688 371 656 q 340 754 371 726 q 267 782 309 782 q 144 648 159 782 l 33 648 q 107 833 45 774 q 258 893 170 893 q 419 835 354 893 q 485 693 485 777 q 450 576 485 633 q 279 454 415 519 q 201 408 224 428 q 178 366 178 389 q 197 328 178 342 q 249 314 216 314 q 345 403 319 314 m 193 61 q 215 113 193 92 q 268 135 237 135 q 320 113 298 135 q 342 61 342 91 q 320 9 342 31 q 268 -12 298 -12 q 215 9 237 -12 q 193 61 193 31 z "},"@":{"ha":1410,"x_min":79,"x_max":1362,"o":"m 1240 12 l 1362 12 q 1153 -197 1306 -103 q 764 -292 1000 -292 q 262 -129 444 -292 q 79 318 79 35 q 167 674 79 507 q 403 927 254 842 q 750 1013 551 1013 q 1175 853 1019 1013 q 1331 494 1331 694 q 1200 144 1331 290 q 926 -3 1070 -3 q 825 24 854 -3 q 791 111 796 51 q 586 -1 691 -1 q 409 85 479 -1 q 338 306 338 172 q 389 510 338 405 q 522 675 439 616 q 689 734 604 734 q 895 610 816 734 l 917 715 l 1039 715 l 930 212 q 921 154 921 167 q 935 123 921 136 q 970 110 949 110 q 1070 157 1004 110 q 1183 295 1137 205 q 1229 486 1229 386 q 1090 792 1229 669 q 743 914 952 914 q 340 747 500 914 q 179 329 179 581 q 334 -55 179 83 q 766 -192 488 -192 q 1065 -130 939 -192 q 1240 12 1192 -67 m 696 635 q 535 530 608 635 q 463 294 463 425 q 504 153 463 207 q 612 98 546 98 q 725 146 665 98 q 820 276 785 194 q 856 437 856 357 q 812 581 856 528 q 696 635 768 635 z "},"A":{"ha":839,"x_min":8,"x_max":821,"o":"m 412 897 l 821 0 l 697 0 l 596 221 l 229 221 l 131 0 l 8 0 l 412 897 m 412 627 l 273 319 l 551 319 l 412 627 z "},"B":{"ha":694,"x_min":107,"x_max":619,"o":"m 107 864 l 244 864 q 465 805 379 864 q 550 657 550 747 q 424 475 550 548 q 619 249 619 410 q 518 68 619 137 q 249 0 418 0 l 107 0 l 107 864 m 224 760 l 224 504 q 373 541 321 505 q 425 640 425 577 q 378 728 425 695 q 253 761 332 761 q 224 760 236 761 m 224 401 l 224 106 l 233 106 q 441 155 386 106 q 497 254 497 203 q 435 361 497 321 q 264 401 372 401 l 224 401 z "},"C":{"ha":839,"x_min":49,"x_max":789,"o":"m 789 835 l 789 701 q 532 770 649 770 q 278 672 381 770 q 175 433 175 575 q 280 192 175 289 q 545 96 386 96 q 789 168 660 96 l 789 33 q 534 -29 671 -29 q 191 107 334 -29 q 49 435 49 243 q 189 758 49 623 q 526 892 329 892 q 789 835 653 892 z "},"D":{"ha":839,"x_min":92,"x_max":793,"o":"m 92 864 l 301 864 q 671 732 550 864 q 793 432 793 601 q 667 131 793 262 q 302 0 542 0 l 92 0 l 92 864 m 210 749 l 210 117 l 216 117 q 414 129 348 117 q 541 180 481 140 q 635 287 600 220 q 671 432 671 353 q 614 612 671 532 q 480 721 558 693 q 269 749 401 749 l 210 749 z "},"E":{"ha":608,"x_min":81,"x_max":559,"o":"m 81 864 l 559 864 l 559 746 l 197 746 l 197 530 l 559 530 l 559 414 l 197 414 l 197 117 l 559 117 l 559 0 l 81 0 l 81 864 z "},"F":{"ha":608,"x_min":81,"x_max":559,"o":"m 81 864 l 559 864 l 559 746 l 197 746 l 197 530 l 559 530 l 559 414 l 199 414 l 199 0 l 81 0 l 81 864 z "},"G":{"ha":1071,"x_min":53,"x_max":1006,"o":"m 925 726 l 838 640 q 532 770 705 770 q 279 672 380 770 q 178 428 178 574 q 276 197 178 300 q 546 94 374 94 q 871 319 804 94 l 637 319 l 637 437 l 1006 437 q 994 296 1006 349 q 945 179 982 243 q 845 65 907 115 q 712 -7 783 14 q 543 -29 642 -29 q 186 112 319 -29 q 53 433 53 252 q 189 758 53 624 q 519 892 326 892 q 730 857 635 892 q 925 726 825 822 z "},"H":{"ha":839,"x_min":94,"x_max":742,"o":"m 94 864 l 212 864 l 212 532 l 625 532 l 625 864 l 742 864 l 742 0 l 625 0 l 625 415 l 212 415 l 212 0 l 94 0 l 94 864 z "},"I":{"ha":304,"x_min":89,"x_max":205,"o":"m 89 864 l 205 864 l 205 0 l 89 0 l 89 864 z "},"J":{"ha":534,"x_min":47,"x_max":410,"o":"m 292 863 l 410 863 l 410 229 q 195 -29 410 -29 q 47 9 120 -29 l 106 106 q 199 86 163 86 q 292 211 292 86 l 292 863 z "},"K":{"ha":766,"x_min":90,"x_max":742,"o":"m 90 864 l 208 864 l 208 513 l 574 864 l 739 864 l 322 463 l 742 0 l 591 0 l 208 421 l 208 0 l 90 0 l 90 864 z "},"L":{"ha":534,"x_min":107,"x_max":505,"o":"m 107 864 l 224 864 l 224 117 l 505 117 l 505 0 l 107 0 l 107 864 z "},"M":{"ha":1071,"x_min":28,"x_max":1039,"o":"m 803 900 l 1039 0 l 924 0 l 781 550 l 534 -33 l 288 554 l 143 0 l 28 0 l 264 900 l 534 256 l 803 900 z "},"N":{"ha":926,"x_min":83,"x_max":840,"o":"m 83 899 l 722 241 l 722 864 l 840 864 l 840 -40 l 201 614 l 201 0 l 83 0 l 83 899 z "},"O":{"ha":1071,"x_min":54,"x_max":1007,"o":"m 54 437 q 195 758 54 625 q 534 892 336 892 q 867 757 728 892 q 1007 437 1007 623 q 869 106 1007 241 q 530 -29 731 -29 q 193 107 332 -29 q 54 437 54 243 m 882 432 q 779 673 882 575 q 525 771 675 771 q 280 671 382 771 q 178 432 178 572 q 282 192 178 290 q 539 94 387 94 q 780 194 679 94 q 882 432 882 294 z "},"P":{"ha":694,"x_min":118,"x_max":619,"o":"m 118 864 l 292 864 q 529 795 439 864 q 619 615 619 726 q 524 429 619 504 q 235 355 429 353 l 235 0 l 118 0 l 118 864 m 235 761 l 235 458 q 432 496 368 460 q 496 612 496 532 q 447 717 496 673 q 235 761 399 761 z "},"Q":{"ha":1071,"x_min":53,"x_max":1007,"o":"m 857 94 l 993 -53 l 839 -53 l 762 28 q 529 -29 640 -29 q 192 107 330 -29 q 53 437 53 243 q 193 758 53 625 q 532 892 334 892 q 867 759 726 892 q 1007 441 1007 626 q 857 94 1007 233 m 675 123 l 485 326 l 639 326 l 772 184 q 882 433 882 290 q 779 674 882 576 q 525 771 677 771 q 279 672 380 771 q 178 432 178 573 q 281 193 178 291 q 534 94 385 94 q 675 123 597 94 z "},"R":{"ha":694,"x_min":109,"x_max":628,"o":"m 109 864 l 296 864 q 523 794 435 864 q 611 616 611 725 q 554 463 611 530 q 376 370 497 397 l 628 0 l 493 0 l 253 355 l 227 355 l 227 0 l 109 0 l 109 864 m 227 760 l 227 458 q 488 610 488 453 q 457 700 488 665 q 376 747 427 734 q 227 760 325 760 z "},"S":{"ha":694,"x_min":52,"x_max":639,"o":"m 618 768 l 522 692 q 453 750 484 731 q 364 770 422 770 q 261 741 300 770 q 221 667 221 712 q 256 597 221 627 q 374 531 290 567 q 504 465 457 496 q 580 397 550 434 q 624 318 610 359 q 639 231 639 277 q 561 47 639 123 q 371 -29 482 -29 q 179 30 262 -29 q 52 208 96 90 l 170 241 q 367 96 234 96 q 474 134 431 96 q 517 232 517 173 q 494 303 517 267 q 439 361 472 338 q 333 414 406 385 q 221 468 260 444 q 153 527 182 493 q 112 595 125 562 q 98 668 98 629 q 173 826 98 761 q 354 892 248 892 q 497 861 425 892 q 618 768 570 831 z "},"T":{"ha":608,"x_min":37,"x_max":566,"o":"m 37 864 l 566 864 l 566 746 l 359 746 l 359 0 l 243 0 l 243 746 l 37 746 l 37 864 z "},"U":{"ha":839,"x_min":86,"x_max":757,"o":"m 86 863 l 204 863 l 204 332 q 261 149 204 214 q 421 85 317 85 q 582 144 524 85 q 639 311 639 203 l 639 863 l 757 863 l 757 319 q 666 66 757 161 q 425 -29 576 -29 q 179 67 271 -29 q 86 351 86 163 l 86 863 z "},"V":{"ha":839,"x_min":18,"x_max":812,"o":"m 18 863 l 143 863 l 414 252 l 686 863 l 812 863 l 412 -29 l 18 863 z "},"W":{"ha":1389,"x_min":32,"x_max":1354,"o":"m 693 897 l 971 260 l 1232 863 l 1354 863 l 971 -26 l 693 612 l 415 -26 l 32 863 l 154 863 l 416 254 l 693 897 z "},"X":{"ha":766,"x_min":47,"x_max":710,"o":"m 57 864 l 187 864 l 380 549 l 571 864 l 703 864 l 446 441 l 710 0 l 579 0 l 380 332 l 179 0 l 47 0 l 314 441 l 57 864 z "},"Y":{"ha":766,"x_min":39,"x_max":722,"o":"m 39 864 l 170 864 l 382 517 l 591 864 l 722 864 l 439 396 l 439 0 l 321 0 l 321 395 l 39 864 z "},"Z":{"ha":694,"x_min":45,"x_max":648,"o":"m 65 864 l 648 864 l 236 117 l 640 117 l 640 0 l 45 0 l 454 746 l 65 746 l 65 864 z "},"[":{"ha":376,"x_min":90,"x_max":340,"o":"m 90 878 l 340 878 l 340 793 l 184 793 l 184 -135 l 340 -135 l 340 -220 l 90 -220 l 90 878 z "},"\\":{"ha":694,"x_min":46,"x_max":686,"o":"m 46 1006 l 122 1006 l 686 -306 l 610 -306 l 46 1006 z "},"]":{"ha":376,"x_min":22,"x_max":273,"o":"m 22 878 l 273 878 l 273 -220 l 25 -220 l 25 -135 l 179 -135 l 179 793 l 22 793 l 22 878 z "},"^":{"ha":652,"x_min":36,"x_max":615,"o":"m 161 468 l 36 468 l 277 1011 l 375 1011 l 615 468 l 492 468 l 325 873 l 161 468 z "},"_":{"ha":694,"x_min":-9,"x_max":704,"o":"m -9 -172 l -9 -103 l 704 -103 l 704 -172 l -9 -172 z "},"`":{"ha":463,"x_min":60,"x_max":315,"o":"m 315 663 l 216 663 l 60 851 l 224 851 l 315 663 z "},"a":{"ha":766,"x_min":69,"x_max":668,"o":"m 550 559 l 668 559 l 668 0 l 550 0 l 550 111 q 336 -16 464 -16 q 148 71 226 -16 q 69 282 69 158 q 148 487 69 399 q 334 575 227 575 q 458 539 399 575 q 550 446 517 503 l 550 559 m 566 278 q 511 409 566 355 q 379 464 456 464 q 249 410 304 464 q 193 282 193 355 q 248 147 193 203 q 379 92 302 92 q 511 147 456 92 q 566 278 566 202 z "},"b":{"ha":766,"x_min":97,"x_max":697,"o":"m 97 880 l 214 880 l 214 449 q 429 575 289 575 q 617 488 538 575 q 697 282 697 401 q 619 74 697 163 q 436 -16 541 -16 q 309 20 369 -16 q 214 118 248 56 l 214 0 l 97 0 l 97 880 m 572 282 q 517 413 572 359 q 385 468 463 468 q 254 413 309 468 q 199 282 199 357 q 254 150 199 203 q 390 96 309 96 q 518 151 465 96 q 572 282 572 205 z "},"c":{"ha":534,"x_min":33,"x_max":498,"o":"m 498 171 l 498 36 q 323 -16 408 -16 q 120 72 208 -16 q 33 273 33 159 q 120 489 33 404 q 338 575 207 575 q 498 534 416 575 l 498 403 q 330 460 410 460 q 202 408 257 460 q 147 288 147 357 q 199 156 147 210 q 325 103 250 103 q 498 171 401 103 z "},"d":{"ha":766,"x_min":65,"x_max":664,"o":"m 547 880 l 664 880 l 664 0 l 549 0 l 549 117 q 330 -16 465 -16 q 143 72 221 -16 q 65 282 65 159 q 144 489 65 402 q 334 575 224 575 q 456 538 399 575 q 547 443 513 502 l 547 880 m 561 281 q 506 411 561 356 q 375 467 451 467 q 242 413 296 467 q 187 281 187 359 q 243 150 187 206 q 372 94 298 94 q 506 149 451 94 q 561 281 561 203 z "},"e":{"ha":694,"x_min":53,"x_max":639,"o":"m 637 257 l 160 257 q 231 131 176 171 q 351 92 286 92 q 519 175 452 92 l 606 110 q 346 -16 509 -16 q 137 70 221 -16 q 53 282 53 155 q 138 488 53 401 q 346 575 223 575 q 553 487 467 575 q 637 257 639 398 m 172 351 l 514 351 q 346 467 457 467 q 172 351 224 467 z "},"f":{"ha":463,"x_min":40,"x_max":416,"o":"m 416 872 l 416 753 q 328 787 365 787 q 279 764 296 787 q 261 700 261 741 l 261 559 l 416 559 l 416 452 l 261 452 l 261 0 l 143 0 l 143 452 l 40 452 l 40 559 l 143 559 l 143 692 q 192 844 143 787 q 323 901 241 901 q 416 872 364 901 z "},"g":{"ha":766,"x_min":62,"x_max":660,"o":"m 545 559 l 660 559 l 660 22 q 578 -179 660 -96 q 380 -262 496 -262 q 218 -215 292 -262 q 110 -69 144 -167 l 232 -69 q 385 -160 287 -160 q 498 -112 451 -160 q 545 3 545 -64 l 545 109 q 329 -16 459 -16 q 142 73 222 -16 q 62 282 62 161 q 140 489 62 403 q 325 575 218 575 q 545 441 463 575 l 545 559 m 561 281 q 506 412 561 359 q 371 465 452 465 q 241 410 297 465 q 184 283 184 355 q 240 149 184 205 q 372 93 296 93 q 506 148 450 93 q 561 281 561 203 z "},"h":{"ha":608,"x_min":53,"x_max":541,"o":"m 53 880 l 171 880 l 171 468 q 262 550 220 524 q 366 575 304 575 q 489 520 437 575 q 541 390 541 466 l 541 0 l 422 0 l 422 357 q 396 441 422 410 q 325 473 369 473 q 216 425 261 473 q 171 309 171 377 l 171 0 l 53 0 l 53 880 z "},"i":{"ha":304,"x_min":57,"x_max":239,"o":"m 57 743 q 84 807 57 780 q 149 833 111 833 q 212 807 185 833 q 239 743 239 780 q 212 680 239 706 q 149 653 185 653 q 84 680 111 653 q 57 743 57 706 m 90 559 l 207 559 l 207 0 l 90 0 l 90 559 z "},"j":{"ha":304,"x_min":58,"x_max":241,"o":"m 58 742 q 85 806 58 779 q 150 833 113 833 q 214 806 187 833 q 241 742 241 779 q 214 677 241 705 q 150 650 187 650 q 85 677 113 650 q 58 742 58 705 m 92 559 l 210 559 l 210 -262 l 92 -262 l 92 559 z "},"k":{"ha":608,"x_min":72,"x_max":576,"o":"m 72 880 l 189 880 l 189 314 l 421 559 l 574 559 l 332 301 l 576 0 l 431 0 l 189 296 l 189 0 l 72 0 l 72 880 z "},"l":{"ha":304,"x_min":96,"x_max":214,"o":"m 96 880 l 214 880 l 214 0 l 96 0 l 96 880 z "},"m":{"ha":926,"x_min":68,"x_max":854,"o":"m 68 0 l 68 559 l 184 559 l 184 473 q 263 551 226 526 q 350 575 301 575 q 450 547 414 575 q 511 458 486 519 q 596 547 555 519 q 692 575 637 575 q 806 525 758 575 q 854 407 854 475 l 854 0 l 737 0 l 737 376 q 646 469 737 469 q 557 422 593 469 q 521 304 521 374 l 521 0 l 403 0 l 403 361 q 313 471 403 471 q 222 426 259 471 q 184 315 184 381 l 184 0 l 68 0 z "},"n":{"ha":608,"x_min":57,"x_max":541,"o":"m 57 0 l 57 559 l 172 559 l 172 467 q 264 549 223 523 q 357 575 306 575 q 487 525 433 575 q 541 404 541 475 l 541 0 l 422 0 l 422 370 q 393 445 422 415 q 318 475 363 475 q 216 425 259 475 q 174 304 174 375 l 174 0 l 57 0 z "},"o":{"ha":694,"x_min":47,"x_max":647,"o":"m 47 282 q 138 486 47 397 q 346 575 229 575 q 557 487 467 575 q 647 282 647 399 q 558 74 647 164 q 354 -16 470 -16 q 139 73 230 -16 q 47 282 47 162 m 533 282 q 479 406 533 353 q 350 458 425 458 q 218 405 273 458 q 163 278 163 352 q 219 155 163 208 q 350 102 275 102 q 478 156 423 102 q 533 282 533 210 z "},"p":{"ha":766,"x_min":94,"x_max":693,"o":"m 211 559 l 211 447 l 211 447 q 428 575 296 575 q 615 489 536 575 q 693 282 693 402 q 614 73 693 161 q 427 -16 534 -16 q 307 17 364 -16 q 212 111 250 50 l 212 111 l 212 -262 l 94 -262 l 94 559 l 211 559 m 570 282 q 514 411 570 356 q 383 467 458 467 q 251 412 307 467 q 195 282 195 357 q 250 149 195 205 q 380 93 305 93 q 514 149 458 93 q 570 282 570 204 z "},"q":{"ha":766,"x_min":65,"x_max":664,"o":"m 547 444 l 547 559 l 664 559 l 664 -262 l 547 -262 l 547 110 l 547 110 q 334 -16 460 -16 q 145 72 225 -16 q 65 279 65 159 q 145 487 65 399 q 332 575 224 575 q 455 539 395 575 q 547 444 515 503 l 547 444 m 562 282 q 506 411 562 357 q 371 465 450 465 q 243 410 297 465 q 189 278 189 354 q 245 148 189 203 q 376 93 300 93 q 508 148 454 93 q 562 282 562 203 z "},"r":{"ha":463,"x_min":94,"x_max":433,"o":"m 210 559 l 210 444 l 210 444 q 287 544 249 513 q 385 575 324 575 q 433 567 401 575 l 397 449 q 353 456 363 456 q 253 414 293 456 q 212 310 212 372 l 212 0 l 94 0 l 94 559 l 210 559 z "},"s":{"ha":463,"x_min":35,"x_max":422,"o":"m 416 493 l 338 424 q 285 457 307 446 q 232 468 262 468 q 160 415 160 468 q 251 341 160 377 q 382 263 342 306 q 422 160 422 220 q 365 37 422 90 q 229 -16 307 -16 q 35 94 111 -16 l 127 139 q 229 92 176 92 q 293 112 266 92 q 321 158 321 132 q 224 242 321 205 q 91 318 128 279 q 54 412 54 356 q 107 529 54 482 q 239 575 159 575 q 416 493 318 575 z "},"t":{"ha":376,"x_min":24,"x_max":351,"o":"m 117 722 l 235 722 l 235 559 l 351 559 l 351 452 l 235 452 l 235 0 l 117 0 l 117 452 l 24 452 l 24 561 l 117 561 l 117 722 z "},"u":{"ha":608,"x_min":58,"x_max":545,"o":"m 58 559 l 176 559 l 176 244 q 304 98 176 98 q 395 137 361 98 q 428 244 428 176 l 428 559 l 545 559 l 545 225 q 476 52 545 120 q 301 -16 408 -16 q 125 52 193 -16 q 58 229 58 120 l 58 559 z "},"v":{"ha":608,"x_min":21,"x_max":585,"o":"m 21 559 l 144 559 l 304 236 l 460 559 l 585 559 l 302 -21 l 21 559 z "},"w":{"ha":926,"x_min":37,"x_max":886,"o":"m 461 583 l 618 212 l 783 559 l 886 559 l 611 -16 l 461 340 l 311 -11 l 37 559 l 140 559 l 306 216 l 461 583 z "},"x":{"ha":694,"x_min":40,"x_max":652,"o":"m 79 559 l 222 559 l 347 400 l 469 559 l 611 559 l 416 307 l 652 0 l 511 0 l 346 214 l 179 0 l 40 0 l 277 307 l 79 559 z "},"y":{"ha":694,"x_min":43,"x_max":642,"o":"m 43 559 l 176 559 l 379 256 l 519 559 l 642 559 l 264 -262 l 140 -262 l 325 138 l 43 559 z "},"z":{"ha":608,"x_min":28,"x_max":564,"o":"m 35 559 l 564 559 l 227 103 l 561 103 l 561 0 l 28 0 l 368 457 l 35 457 l 35 559 z "},"{":{"ha":464,"x_min":39,"x_max":432,"o":"m 39 273 l 39 385 q 120 410 84 385 q 168 483 156 435 q 180 682 179 531 q 198 872 180 832 q 251 946 216 911 q 395 981 286 981 l 432 981 l 432 875 l 411 875 q 316 848 337 875 q 294 734 294 822 l 294 635 q 264 429 294 495 q 153 329 233 363 q 262 232 229 298 q 294 22 294 165 l 294 -77 q 315 -190 294 -163 q 411 -216 336 -216 l 432 -216 l 432 -322 l 395 -322 q 249 -286 284 -322 q 197 -212 213 -250 q 180 -23 180 -174 q 167 176 179 128 q 119 249 155 224 q 39 273 83 273 z "},"|":{"ha":732,"x_min":321,"x_max":411,"o":"m 321 966 l 411 966 l 411 -187 l 321 -187 l 321 966 z "},"}":{"ha":464,"x_min":32,"x_max":425,"o":"m 425 385 l 425 273 q 344 249 380 273 q 296 175 308 224 q 284 -23 285 127 q 266 -213 283 -174 q 213 -288 248 -253 q 69 -322 178 -322 l 32 -322 l 32 -216 l 53 -216 q 148 -190 127 -216 q 170 -77 170 -163 l 170 22 q 202 232 170 165 q 311 329 235 298 q 196 439 222 369 q 170 635 170 509 l 170 734 q 148 848 170 822 q 53 875 127 875 l 32 875 l 32 981 l 69 981 q 215 944 180 981 q 267 870 251 908 q 284 681 283 832 q 297 482 285 530 q 345 409 309 434 q 425 385 380 385 z "},"~":{"ha":911,"x_min":89,"x_max":822,"o":"m 822 574 l 822 475 q 629 389 719 389 q 539 404 581 389 q 415 459 497 420 q 286 498 332 498 q 89 406 199 498 l 89 503 q 288 587 195 587 q 370 573 328 587 q 497 518 412 559 q 627 478 583 478 q 822 574 715 478 z "},"Ä":{"ha":839,"x_min":8,"x_max":821,"o":"m 412 897 l 821 0 l 697 0 l 596 221 l 229 221 l 131 0 l 8 0 l 412 897 m 412 627 l 273 319 l 551 319 l 412 627 m 211 1032 q 232 1082 211 1061 q 283 1103 253 1103 q 333 1082 312 1103 q 354 1032 354 1061 q 333 981 354 1002 q 283 960 312 960 q 232 981 253 960 q 211 1032 211 1002 m 486 1032 q 507 1082 486 1061 q 557 1103 528 1103 q 608 1082 587 1103 q 629 1032 629 1061 q 608 981 629 1002 q 557 960 587 960 q 507 981 528 960 q 486 1032 486 1002 z "},"Å":{"ha":839,"x_min":8,"x_max":821,"o":"m 412 897 l 821 0 l 697 0 l 596 221 l 229 221 l 131 0 l 8 0 l 412 897 m 412 627 l 273 319 l 551 319 l 412 627 m 420 920 q 334 957 370 920 q 298 1047 298 994 q 335 1132 298 1096 q 420 1168 371 1168 q 507 1132 471 1168 q 543 1044 543 1095 q 507 956 543 993 q 420 920 471 920 m 422 1118 q 371 1097 393 1118 q 350 1046 350 1076 q 371 993 350 1015 q 422 971 392 971 q 473 993 451 971 q 494 1044 494 1015 q 473 1097 494 1076 q 422 1118 452 1118 z "},"Ç":{"ha":839,"x_min":49,"x_max":789,"o":"m 335 -104 l 367 0 q 134 172 220 52 q 49 435 49 291 q 189 758 49 623 q 526 892 329 892 q 789 835 653 892 l 789 701 q 532 770 649 770 q 278 672 381 770 q 175 433 175 575 q 280 192 175 289 q 545 96 386 96 q 789 168 660 96 l 789 33 q 534 -29 671 -29 q 450 -22 496 -29 l 439 -57 q 524 -91 494 -64 q 554 -157 554 -118 q 499 -251 554 -215 q 353 -286 445 -286 q 261 -278 313 -286 l 268 -199 l 283 -199 l 321 -201 q 441 -150 441 -201 q 346 -104 441 -104 l 335 -104 z "},"É":{"ha":608,"x_min":81,"x_max":559,"o":"m 81 864 l 559 864 l 559 746 l 197 746 l 197 530 l 559 530 l 559 414 l 197 414 l 197 117 l 559 117 l 559 0 l 81 0 l 81 864 m 225 950 l 315 1139 l 475 1139 l 326 950 l 225 950 z "},"Ñ":{"ha":926,"x_min":83,"x_max":840,"o":"m 83 899 l 722 241 l 722 864 l 840 864 l 840 -40 l 201 614 l 201 0 l 83 0 l 83 899 m 326 966 l 236 966 l 236 975 q 275 1080 236 1038 q 375 1121 315 1121 q 469 1093 406 1121 q 553 1064 531 1064 q 587 1078 576 1064 q 602 1122 597 1092 l 690 1122 q 653 1008 688 1048 q 558 968 618 968 q 457 1000 513 968 q 378 1031 402 1031 q 340 1015 355 1031 q 326 972 326 998 l 326 966 z "},"Ö":{"ha":1071,"x_min":54,"x_max":1007,"o":"m 54 437 q 195 758 54 625 q 534 892 336 892 q 867 757 728 892 q 1007 437 1007 623 q 869 106 1007 241 q 530 -29 731 -29 q 193 107 332 -29 q 54 437 54 243 m 882 432 q 779 673 882 575 q 525 771 675 771 q 280 671 382 771 q 178 432 178 572 q 282 192 178 290 q 539 94 387 94 q 780 194 679 94 q 882 432 882 294 m 326 1032 q 347 1082 326 1061 q 398 1103 368 1103 q 448 1082 427 1103 q 469 1032 469 1061 q 448 981 469 1002 q 398 960 427 960 q 347 981 368 960 q 326 1032 326 1002 m 601 1032 q 622 1082 601 1061 q 672 1103 643 1103 q 723 1082 702 1103 q 744 1032 744 1061 q 723 981 744 1002 q 672 960 702 960 q 622 981 643 960 q 601 1032 601 1002 z "},"Ü":{"ha":839,"x_min":86,"x_max":757,"o":"m 86 863 l 204 863 l 204 332 q 261 149 204 214 q 421 85 317 85 q 582 144 524 85 q 639 311 639 203 l 639 863 l 757 863 l 757 319 q 666 66 757 161 q 425 -29 576 -29 q 179 67 271 -29 q 86 351 86 163 l 86 863 m 211 1032 q 232 1082 211 1061 q 283 1103 253 1103 q 333 1082 312 1103 q 354 1032 354 1061 q 333 981 354 1002 q 283 960 312 960 q 232 981 253 960 q 211 1032 211 1002 m 486 1032 q 507 1082 486 1061 q 557 1103 528 1103 q 608 1082 587 1103 q 629 1032 629 1061 q 608 981 629 1002 q 557 960 587 960 q 507 981 528 960 q 486 1032 486 1002 z "},"á":{"ha":766,"x_min":69,"x_max":668,"o":"m 550 559 l 668 559 l 668 0 l 550 0 l 550 111 q 336 -16 464 -16 q 148 71 226 -16 q 69 282 69 158 q 148 487 69 399 q 334 575 227 575 q 458 539 399 575 q 550 446 517 503 l 550 559 m 566 278 q 511 409 566 355 q 379 464 456 464 q 249 410 304 464 q 193 282 193 355 q 248 147 193 203 q 379 92 302 92 q 511 147 456 92 q 566 278 566 202 m 304 663 l 395 851 l 555 851 l 405 663 l 304 663 z "},"à":{"ha":766,"x_min":69,"x_max":668,"o":"m 550 559 l 668 559 l 668 0 l 550 0 l 550 111 q 336 -16 464 -16 q 148 71 226 -16 q 69 282 69 158 q 148 487 69 399 q 334 575 227 575 q 458 539 399 575 q 550 446 517 503 l 550 559 m 566 278 q 511 409 566 355 q 379 464 456 464 q 249 410 304 464 q 193 282 193 355 q 248 147 193 203 q 379 92 302 92 q 511 147 456 92 q 566 278 566 202 m 468 663 l 369 663 l 212 851 l 376 851 l 468 663 z "},"â":{"ha":766,"x_min":69,"x_max":668,"o":"m 550 559 l 668 559 l 668 0 l 550 0 l 550 111 q 336 -16 464 -16 q 148 71 226 -16 q 69 282 69 158 q 148 487 69 399 q 334 575 227 575 q 458 539 399 575 q 550 446 517 503 l 550 559 m 566 278 q 511 409 566 355 q 379 464 456 464 q 249 410 304 464 q 193 282 193 355 q 248 147 193 203 q 379 92 302 92 q 511 147 456 92 q 566 278 566 202 m 386 778 l 308 663 l 170 663 l 317 851 l 446 851 l 598 663 l 460 663 l 386 778 z "},"ä":{"ha":766,"x_min":69,"x_max":668,"o":"m 550 559 l 668 559 l 668 0 l 550 0 l 550 111 q 336 -16 464 -16 q 148 71 226 -16 q 69 282 69 158 q 148 487 69 399 q 334 575 227 575 q 458 539 399 575 q 550 446 517 503 l 550 559 m 566 278 q 511 409 566 355 q 379 464 456 464 q 249 410 304 464 q 193 282 193 355 q 248 147 193 203 q 379 92 302 92 q 511 147 456 92 q 566 278 566 202 m 175 745 q 196 794 175 774 q 247 815 217 815 q 297 794 276 815 q 318 745 318 774 q 297 693 318 715 q 247 672 276 672 q 196 693 217 672 q 175 745 175 714 m 450 745 q 471 794 450 774 q 521 815 492 815 q 572 794 551 815 q 593 745 593 774 q 572 693 593 714 q 521 672 551 672 q 471 693 492 672 q 450 745 450 715 z "},"ã":{"ha":766,"x_min":69,"x_max":668,"o":"m 550 559 l 668 559 l 668 0 l 550 0 l 550 111 q 336 -16 464 -16 q 148 71 226 -16 q 69 282 69 158 q 148 487 69 399 q 334 575 227 575 q 458 539 399 575 q 550 446 517 503 l 550 559 m 566 278 q 511 409 566 355 q 379 464 456 464 q 249 410 304 464 q 193 282 193 355 q 248 147 193 203 q 379 92 302 92 q 511 147 456 92 q 566 278 566 202 m 247 679 l 157 679 l 157 688 q 196 792 157 751 q 296 833 235 833 q 389 805 327 833 q 473 777 452 777 q 508 790 497 777 q 522 835 518 804 l 611 835 q 573 721 608 760 q 479 681 538 681 q 378 713 433 681 q 298 743 323 743 q 261 727 275 743 q 247 685 247 711 l 247 679 z "},"å":{"ha":766,"x_min":69,"x_max":668,"o":"m 550 559 l 668 559 l 668 0 l 550 0 l 550 111 q 336 -16 464 -16 q 148 71 226 -16 q 69 282 69 158 q 148 487 69 399 q 334 575 227 575 q 458 539 399 575 q 550 446 517 503 l 550 559 m 566 278 q 511 409 566 355 q 379 464 456 464 q 249 410 304 464 q 193 282 193 355 q 248 147 193 203 q 379 92 302 92 q 511 147 456 92 q 566 278 566 202 m 385 632 q 298 669 334 632 q 262 760 262 707 q 299 844 262 808 q 385 880 335 880 q 471 844 435 880 q 507 757 507 808 q 471 669 507 705 q 385 632 435 632 m 386 831 q 335 809 357 831 q 314 758 314 788 q 335 705 314 727 q 386 684 356 684 q 437 705 415 684 q 458 757 458 727 q 437 809 458 788 q 386 831 416 831 z "},"ç":{"ha":534,"x_min":33,"x_max":498,"o":"m 182 -104 l 215 7 q 83 117 132 43 q 33 273 33 191 q 120 489 33 404 q 338 575 207 575 q 498 534 416 575 l 498 403 q 330 460 410 460 q 202 408 257 460 q 147 288 147 357 q 199 156 147 210 q 325 103 250 103 q 498 171 401 103 l 498 36 q 323 -16 408 -16 q 298 -14 307 -16 l 286 -57 q 371 -91 341 -64 q 401 -157 401 -118 q 347 -251 401 -215 q 200 -286 292 -286 q 109 -278 160 -286 l 115 -199 l 131 -199 l 168 -201 q 289 -150 289 -201 q 193 -104 289 -104 l 182 -104 z "},"é":{"ha":694,"x_min":53,"x_max":639,"o":"m 637 257 l 160 257 q 231 131 176 171 q 351 92 286 92 q 519 175 452 92 l 606 110 q 346 -16 509 -16 q 137 70 221 -16 q 53 282 53 155 q 138 488 53 401 q 346 575 223 575 q 553 487 467 575 q 637 257 639 398 m 172 351 l 514 351 q 346 467 457 467 q 172 351 224 467 m 268 663 l 358 851 l 518 851 l 368 663 l 268 663 z "},"è":{"ha":694,"x_min":53,"x_max":639,"o":"m 637 257 l 160 257 q 231 131 176 171 q 351 92 286 92 q 519 175 452 92 l 606 110 q 346 -16 509 -16 q 137 70 221 -16 q 53 282 53 155 q 138 488 53 401 q 346 575 223 575 q 553 487 467 575 q 637 257 639 398 m 172 351 l 514 351 q 346 467 457 467 q 172 351 224 467 m 432 663 l 333 663 l 176 851 l 340 851 l 432 663 z "},"ê":{"ha":694,"x_min":53,"x_max":639,"o":"m 637 257 l 160 257 q 231 131 176 171 q 351 92 286 92 q 519 175 452 92 l 606 110 q 346 -16 509 -16 q 137 70 221 -16 q 53 282 53 155 q 138 488 53 401 q 346 575 223 575 q 553 487 467 575 q 637 257 639 398 m 172 351 l 514 351 q 346 467 457 467 q 172 351 224 467 m 350 778 l 272 663 l 134 663 l 281 851 l 410 851 l 562 663 l 424 663 l 350 778 z "},"ë":{"ha":694,"x_min":53,"x_max":639,"o":"m 637 257 l 160 257 q 231 131 176 171 q 351 92 286 92 q 519 175 452 92 l 606 110 q 346 -16 509 -16 q 137 70 221 -16 q 53 282 53 155 q 138 488 53 401 q 346 575 223 575 q 553 487 467 575 q 637 257 639 398 m 172 351 l 514 351 q 346 467 457 467 q 172 351 224 467 m 139 745 q 160 794 139 774 q 211 815 181 815 q 261 794 240 815 q 282 745 282 774 q 261 693 282 715 q 211 672 240 672 q 160 693 181 672 q 139 745 139 714 m 414 745 q 435 794 414 774 q 485 815 456 815 q 536 794 515 815 q 557 745 557 774 q 536 693 557 714 q 485 672 515 672 q 435 693 456 672 q 414 745 414 715 z "},"í":{"ha":304,"x_min":72,"x_max":322,"o":"m 90 559 l 207 559 l 207 0 l 90 0 l 90 559 m 72 663 l 162 851 l 322 851 l 172 663 l 72 663 z "},"ì":{"ha":304,"x_min":-20,"x_max":236,"o":"m 90 559 l 207 559 l 207 0 l 90 0 l 90 559 m 236 663 l 137 663 l -20 851 l 144 851 l 236 663 z "},"î":{"ha":304,"x_min":-62,"x_max":366,"o":"m 90 559 l 207 559 l 207 0 l 90 0 l 90 559 m 154 778 l 76 663 l -62 663 l 85 851 l 214 851 l 366 663 l 228 663 l 154 778 z "},"ï":{"ha":304,"x_min":-57,"x_max":361,"o":"m 90 559 l 207 559 l 207 0 l 90 0 l 90 559 m -57 745 q -36 794 -57 774 q 15 815 -15 815 q 65 794 44 815 q 86 745 86 774 q 65 693 86 715 q 15 672 44 672 q -36 693 -15 672 q -57 745 -57 714 m 218 745 q 239 794 218 774 q 289 815 260 815 q 340 794 319 815 q 361 745 361 774 q 340 693 361 714 q 289 672 319 672 q 239 693 260 672 q 218 745 218 715 z "},"ñ":{"ha":608,"x_min":57,"x_max":541,"o":"m 57 0 l 57 559 l 172 559 l 172 467 q 264 549 223 523 q 357 575 306 575 q 487 525 433 575 q 541 404 541 475 l 541 0 l 422 0 l 422 370 q 393 445 422 415 q 318 475 363 475 q 216 425 259 475 q 174 304 174 375 l 174 0 l 57 0 m 168 679 l 78 679 l 78 688 q 117 792 78 751 q 217 833 157 833 q 311 805 248 833 q 395 777 373 777 q 429 790 418 777 q 444 835 439 804 l 532 835 q 495 721 530 760 q 400 681 460 681 q 299 713 355 681 q 220 743 244 743 q 182 727 197 743 q 168 685 168 711 l 168 679 z "},"ó":{"ha":694,"x_min":47,"x_max":647,"o":"m 47 282 q 138 486 47 397 q 346 575 229 575 q 557 487 467 575 q 647 282 647 399 q 558 74 647 164 q 354 -16 470 -16 q 139 73 230 -16 q 47 282 47 162 m 533 282 q 479 406 533 353 q 350 458 425 458 q 218 405 273 458 q 163 278 163 352 q 219 155 163 208 q 350 102 275 102 q 478 156 423 102 q 533 282 533 210 m 268 663 l 358 851 l 518 851 l 368 663 l 268 663 z "},"ò":{"ha":694,"x_min":47,"x_max":647,"o":"m 47 282 q 138 486 47 397 q 346 575 229 575 q 557 487 467 575 q 647 282 647 399 q 558 74 647 164 q 354 -16 470 -16 q 139 73 230 -16 q 47 282 47 162 m 533 282 q 479 406 533 353 q 350 458 425 458 q 218 405 273 458 q 163 278 163 352 q 219 155 163 208 q 350 102 275 102 q 478 156 423 102 q 533 282 533 210 m 432 663 l 333 663 l 176 851 l 340 851 l 432 663 z "},"ô":{"ha":694,"x_min":47,"x_max":647,"o":"m 47 282 q 138 486 47 397 q 346 575 229 575 q 557 487 467 575 q 647 282 647 399 q 558 74 647 164 q 354 -16 470 -16 q 139 73 230 -16 q 47 282 47 162 m 533 282 q 479 406 533 353 q 350 458 425 458 q 218 405 273 458 q 163 278 163 352 q 219 155 163 208 q 350 102 275 102 q 478 156 423 102 q 533 282 533 210 m 350 778 l 272 663 l 134 663 l 281 851 l 410 851 l 562 663 l 424 663 l 350 778 z "},"ö":{"ha":694,"x_min":47,"x_max":647,"o":"m 47 282 q 138 486 47 397 q 346 575 229 575 q 557 487 467 575 q 647 282 647 399 q 558 74 647 164 q 354 -16 470 -16 q 139 73 230 -16 q 47 282 47 162 m 533 282 q 479 406 533 353 q 350 458 425 458 q 218 405 273 458 q 163 278 163 352 q 219 155 163 208 q 350 102 275 102 q 478 156 423 102 q 533 282 533 210 m 139 745 q 160 794 139 774 q 211 815 181 815 q 261 794 240 815 q 282 745 282 774 q 261 693 282 715 q 211 672 240 672 q 160 693 181 672 q 139 745 139 714 m 414 745 q 435 794 414 774 q 485 815 456 815 q 536 794 515 815 q 557 745 557 774 q 536 693 557 714 q 485 672 515 672 q 435 693 456 672 q 414 745 414 715 z "},"õ":{"ha":694,"x_min":47,"x_max":647,"o":"m 47 282 q 138 486 47 397 q 346 575 229 575 q 557 487 467 575 q 647 282 647 399 q 558 74 647 164 q 354 -16 470 -16 q 139 73 230 -16 q 47 282 47 162 m 533 282 q 479 406 533 353 q 350 458 425 458 q 218 405 273 458 q 163 278 163 352 q 219 155 163 208 q 350 102 275 102 q 478 156 423 102 q 533 282 533 210 m 211 679 l 121 679 l 121 688 q 160 792 121 751 q 260 833 199 833 q 353 805 291 833 q 437 777 416 777 q 472 790 461 777 q 486 835 482 804 l 575 835 q 537 721 572 760 q 443 681 503 681 q 342 713 397 681 q 262 743 287 743 q 225 727 239 743 q 211 685 211 711 l 211 679 z "},"ú":{"ha":608,"x_min":58,"x_max":545,"o":"m 58 559 l 176 559 l 176 244 q 304 98 176 98 q 395 137 361 98 q 428 244 428 176 l 428 559 l 545 559 l 545 225 q 476 52 545 120 q 301 -16 408 -16 q 125 52 193 -16 q 58 229 58 120 l 58 559 m 225 663 l 315 851 l 475 851 l 326 663 l 225 663 z "},"ù":{"ha":608,"x_min":58,"x_max":545,"o":"m 58 559 l 176 559 l 176 244 q 304 98 176 98 q 395 137 361 98 q 428 244 428 176 l 428 559 l 545 559 l 545 225 q 476 52 545 120 q 301 -16 408 -16 q 125 52 193 -16 q 58 229 58 120 l 58 559 m 389 663 l 290 663 l 134 851 l 298 851 l 389 663 z "},"û":{"ha":608,"x_min":58,"x_max":545,"o":"m 58 559 l 176 559 l 176 244 q 304 98 176 98 q 395 137 361 98 q 428 244 428 176 l 428 559 l 545 559 l 545 225 q 476 52 545 120 q 301 -16 408 -16 q 125 52 193 -16 q 58 229 58 120 l 58 559 m 307 778 l 229 663 l 90 663 l 237 851 l 366 851 l 519 663 l 380 663 l 307 778 z "},"ü":{"ha":608,"x_min":58,"x_max":545,"o":"m 58 559 l 176 559 l 176 244 q 304 98 176 98 q 395 137 361 98 q 428 244 428 176 l 428 559 l 545 559 l 545 225 q 476 52 545 120 q 301 -16 408 -16 q 125 52 193 -16 q 58 229 58 120 l 58 559 m 96 745 q 117 794 96 774 q 168 815 138 815 q 218 794 197 815 q 239 745 239 774 q 218 693 239 715 q 168 672 197 672 q 117 693 138 672 q 96 745 96 714 m 370 745 q 391 794 370 774 q 441 815 412 815 q 492 794 471 815 q 513 745 513 774 q 492 693 513 714 q 441 672 471 672 q 391 693 412 672 q 370 745 370 715 z "},"†":{"ha":608,"x_min":56,"x_max":549,"o":"m 323 -257 l 279 -257 q 254 121 278 -57 q 243 256 243 205 q 260 388 243 317 q 278 505 277 458 q 193 488 244 506 q 113 471 141 471 q 72 487 87 471 q 56 528 56 503 q 119 585 56 585 q 186 569 144 585 q 279 553 229 553 q 260 709 277 626 q 243 822 243 791 q 259 882 243 861 q 304 904 276 904 q 347 882 331 904 q 363 821 363 859 q 343 713 363 797 q 322 553 324 629 q 408 569 356 553 q 486 585 460 585 q 531 569 513 585 q 549 528 549 553 q 531 488 549 504 q 489 472 514 472 q 412 489 460 472 q 325 505 363 506 q 342 393 325 467 q 359 257 359 319 q 351 155 359 211 q 323 -257 327 -26 z "},"°":{"ha":555,"x_min":90,"x_max":465,"o":"m 278 635 q 145 690 200 635 q 90 823 90 746 q 145 956 90 901 q 278 1011 200 1011 q 410 956 355 1011 q 465 823 465 901 q 410 690 465 746 q 278 635 355 635 m 278 937 q 197 904 231 937 q 164 823 164 871 q 198 742 164 776 q 278 708 231 708 q 359 742 326 708 q 392 823 392 776 q 358 904 392 871 q 278 937 325 937 z "},"¢":{"ha":608,"x_min":53,"x_max":550,"o":"m 478 811 l 538 811 l 453 566 q 550 518 503 551 l 550 370 q 410 447 480 429 l 296 121 q 357 113 332 113 q 549 175 447 113 l 549 35 q 366 -12 456 -12 q 254 5 320 -12 l 163 -252 l 102 -252 l 201 31 q 80 157 107 97 q 53 277 53 217 q 143 488 53 401 q 361 575 233 575 l 395 575 l 478 811 m 243 147 l 351 452 q 226 396 274 447 q 178 275 178 345 q 193 205 178 232 q 243 147 208 179 z "},"£":{"ha":766,"x_min":52,"x_max":732,"o":"m 661 669 l 536 669 q 435 793 526 793 q 363 762 389 793 q 336 677 336 731 q 366 509 336 633 l 546 509 l 546 410 l 387 410 q 396 342 396 372 q 361 168 396 263 q 479 103 445 119 q 539 87 514 87 q 603 120 579 87 q 627 211 627 153 l 627 225 l 732 225 q 677 36 732 100 q 533 -28 623 -28 q 452 -11 490 -28 q 311 68 413 5 q 165 -25 241 -25 q 85 11 118 -25 q 52 97 52 46 q 89 189 52 152 q 180 227 126 227 q 279 201 216 227 q 286 261 286 234 q 258 411 286 330 l 71 411 l 71 509 l 239 509 q 222 648 222 604 q 292 834 222 772 q 444 896 361 896 q 592 836 531 896 q 661 669 653 776 m 249 111 q 167 142 199 142 q 131 128 145 142 q 117 94 117 115 q 131 61 117 75 q 164 47 144 47 q 249 111 205 47 z "},"§":{"ha":608,"x_min":47,"x_max":553,"o":"m 533 704 l 415 704 q 296 793 391 793 q 224 772 251 793 q 197 717 197 751 q 228 657 197 686 q 353 577 258 629 q 500 459 448 525 q 553 307 553 393 q 401 102 553 176 q 524 -85 524 20 q 460 -209 524 -156 q 311 -262 397 -262 q 151 -213 215 -262 q 69 -71 87 -163 l 186 -71 q 232 -137 205 -117 q 306 -158 258 -158 q 377 -137 349 -158 q 406 -85 406 -117 q 374 -21 406 -52 q 247 62 342 10 q 99 178 151 114 q 47 323 47 241 q 201 533 47 461 q 79 715 79 612 q 143 844 79 792 q 302 896 207 896 q 450 848 385 896 q 533 704 515 800 m 277 178 l 325 149 q 452 306 452 197 q 422 380 452 342 q 277 488 393 418 q 150 335 150 433 q 180 251 150 285 q 277 178 210 218 z "},"•":{"ha":486,"x_min":71,"x_max":415,"o":"m 243 315 q 121 366 172 315 q 71 486 71 416 q 121 608 71 557 q 243 659 172 659 q 365 608 314 659 q 415 486 415 557 q 365 366 415 416 q 243 315 314 315 z "},"¶":{"ha":747,"x_min":-3,"x_max":747,"o":"m 272 -277 l 272 432 q 70 516 142 440 q -3 713 -3 592 q 24 839 -3 781 q 96 931 50 896 q 192 980 142 966 q 318 994 243 994 l 747 994 l 747 876 l 650 876 l 650 -277 l 534 -277 l 534 876 l 383 876 l 383 -277 l 272 -277 z "},"ß":{"ha":766,"x_min":107,"x_max":697,"o":"m 107 1 l 107 576 q 184 806 107 720 q 390 892 262 892 q 591 825 513 892 q 669 656 669 759 q 484 458 669 511 l 484 456 q 697 212 697 418 q 631 46 697 105 q 446 -14 566 -14 q 306 22 370 -14 l 306 125 q 436 89 368 89 q 542 133 501 89 q 583 245 583 176 q 531 358 583 310 q 411 407 479 407 l 353 407 l 353 507 l 418 507 q 516 546 476 507 q 557 640 557 585 q 511 740 557 700 q 397 781 465 781 q 274 731 325 781 q 224 603 224 681 l 224 1 l 107 1 z "},"®":{"ha":1025,"x_min":0,"x_max":1023,"o":"m 0 500 q 151 861 0 711 q 513 1011 301 1011 q 873 861 723 1011 q 1023 500 1023 711 q 873 138 1023 289 q 513 -12 723 -12 q 151 138 301 -12 q 0 500 0 288 m 939 500 q 813 801 939 675 q 513 926 688 926 q 211 801 336 926 q 85 500 85 675 q 211 198 85 323 q 513 72 336 72 q 813 198 688 72 q 939 500 939 324 m 288 216 l 288 766 l 476 766 q 608 755 566 766 q 681 706 650 744 q 713 623 713 668 q 670 513 713 557 q 555 464 628 469 l 555 461 q 684 323 607 446 l 750 216 l 642 216 l 593 302 q 516 418 546 386 q 429 450 486 450 l 376 450 l 376 216 l 288 216 m 376 526 l 485 526 q 586 546 554 526 q 618 610 618 566 q 586 674 618 656 q 478 692 555 692 l 376 692 l 376 526 z "},"©":{"ha":1025,"x_min":0,"x_max":1023,"o":"m 0 500 q 151 861 0 711 q 513 1011 301 1011 q 873 861 723 1011 q 1023 500 1023 711 q 873 138 1023 289 q 513 -12 723 -12 q 151 138 301 -12 q 0 500 0 288 m 939 500 q 813 801 939 675 q 513 926 688 926 q 211 801 336 926 q 85 500 85 675 q 211 198 85 323 q 513 72 336 72 q 813 198 688 72 q 939 500 939 324 m 676 416 l 760 392 q 671 255 738 304 q 514 205 604 205 q 316 286 389 205 q 244 507 244 366 q 319 710 244 633 q 518 786 394 786 q 666 745 606 786 q 749 627 726 704 l 668 607 q 510 711 628 711 q 384 652 432 711 q 336 494 336 592 q 383 341 336 397 q 513 286 430 286 q 615 321 570 286 q 676 416 660 355 z "},"™":{"ha":1389,"x_min":153,"x_max":1210,"o":"m 332 441 l 332 913 l 153 913 l 153 994 l 604 994 l 604 913 l 424 913 l 424 441 l 332 441 m 667 441 l 667 994 l 803 994 l 940 553 l 943 553 l 1076 994 l 1210 994 l 1210 441 l 1125 441 l 1125 905 l 1122 905 l 983 441 l 900 441 l 754 913 l 751 913 l 751 441 l 667 441 z "},"´":{"ha":463,"x_min":151,"x_max":401,"o":"m 151 663 l 241 851 l 401 851 l 252 663 l 151 663 z "},"¨":{"ha":463,"x_min":22,"x_max":440,"o":"m 22 745 q 43 794 22 774 q 94 815 64 815 q 144 794 123 815 q 165 745 165 774 q 144 693 165 715 q 94 672 123 672 q 43 693 64 672 q 22 745 22 714 m 297 745 q 318 794 297 774 q 368 815 339 815 q 419 794 398 815 q 440 745 440 774 q 419 693 440 714 q 368 672 398 672 q 318 693 339 672 q 297 745 297 715 z "},"≠":{"ha":926,"x_min":94,"x_max":832,"o":"m 832 249 l 386 249 l 277 55 l 210 94 l 296 249 l 94 249 l 94 338 l 347 338 l 471 566 l 94 566 l 94 656 l 524 656 l 631 852 l 700 813 l 612 656 l 832 656 l 832 566 l 562 566 l 435 338 l 832 338 l 832 249 z "},"Æ":{"ha":1071,"x_min":16,"x_max":1032,"o":"m 498 864 l 1032 864 l 1032 747 l 677 747 l 677 530 l 1032 530 l 1032 414 l 677 414 l 677 117 l 1031 117 l 1031 0 l 561 0 l 561 269 l 296 269 l 146 0 l 16 0 l 498 864 m 558 746 l 350 367 l 561 367 l 561 746 l 558 746 z "},"Ø":{"ha":1071,"x_min":69,"x_max":1010,"o":"m 932 964 l 1010 895 l 890 755 q 984 604 958 676 q 1010 447 1010 532 q 869 110 1010 247 q 525 -28 729 -28 q 391 -12 445 -28 q 272 41 337 5 l 143 -106 l 69 -36 l 193 107 q 99 256 128 174 q 69 419 69 338 q 211 756 69 618 q 559 895 353 895 q 689 878 634 895 q 812 823 745 861 l 932 964 m 277 203 l 726 725 q 554 770 642 770 q 299 669 405 770 q 193 427 193 568 q 213 304 193 348 q 277 203 233 260 m 808 660 l 354 139 q 522 96 437 96 q 781 198 676 96 q 886 449 886 300 q 868 556 886 513 q 808 660 850 600 z "},"∞":{"ha":990,"x_min":103,"x_max":889,"o":"m 462 572 q 564 690 512 654 q 681 726 616 726 q 830 663 770 726 q 889 490 889 600 q 830 316 889 380 q 681 253 770 253 q 565 289 617 253 q 462 408 513 325 q 368 321 421 351 q 267 291 315 291 q 151 344 199 291 q 103 490 103 397 q 151 635 103 582 q 267 688 199 688 q 368 658 315 688 q 462 572 421 628 m 525 491 q 605 384 582 404 q 683 353 641 353 q 762 393 734 353 q 790 492 790 433 q 760 591 790 556 q 685 627 729 627 q 615 602 650 627 q 525 491 581 578 m 404 492 q 275 588 336 588 q 221 563 243 588 q 198 493 198 538 q 220 421 198 447 q 275 395 243 395 q 322 410 301 395 q 404 492 359 434 z "},"±":{"ha":926,"x_min":94,"x_max":832,"o":"m 94 607 l 418 607 l 418 932 l 507 932 l 507 607 l 832 607 l 832 518 l 507 518 l 507 195 l 418 195 l 418 518 l 94 518 l 94 607 m 94 58 l 832 58 l 832 -31 l 94 -31 l 94 58 z "},"≤":{"ha":926,"x_min":94,"x_max":832,"o":"m 831 100 l 96 410 l 96 490 l 831 800 l 831 703 l 215 450 l 831 196 l 831 100 m 94 58 l 832 58 l 832 -31 l 94 -31 l 94 58 z "},"≥":{"ha":926,"x_min":94,"x_max":832,"o":"m 94 800 l 831 489 l 831 410 l 94 100 l 94 196 l 711 449 l 94 703 l 94 800 m 94 58 l 832 58 l 832 -31 l 94 -31 l 94 58 z "},"¥":{"ha":766,"x_min":50,"x_max":733,"o":"m 262 729 l 522 729 l 603 863 l 733 863 l 653 729 l 710 729 l 710 648 l 604 648 l 497 473 l 710 473 l 710 393 l 449 393 l 449 0 l 336 0 l 336 393 l 74 393 l 74 473 l 288 473 l 180 648 l 74 648 l 74 729 l 131 729 l 50 863 l 180 863 l 262 729 m 473 648 l 311 648 l 393 514 l 473 648 z "},"µ":{"ha":772,"x_min":94,"x_max":676,"o":"m 676 720 l 676 0 l 568 0 l 568 85 l 566 85 q 492 7 532 31 q 385 -17 452 -17 q 290 4 326 -17 q 218 72 253 25 l 215 72 l 215 -277 l 94 -277 l 94 720 l 215 720 l 215 370 q 231 207 215 257 q 287 125 246 157 q 379 93 328 93 q 481 124 437 93 q 541 205 525 156 q 557 367 557 255 l 557 720 l 676 720 z "},"∂":{"ha":686,"x_min":35,"x_max":657,"o":"m 286 772 l 195 812 q 309 965 242 919 q 439 1011 375 1011 q 532 984 490 1011 q 595 923 574 958 q 642 796 627 869 q 657 628 657 723 q 598 280 657 433 q 440 56 540 128 q 244 -17 340 -17 q 93 45 151 -17 q 35 218 35 106 q 139 481 35 372 q 579 627 273 621 q 563 800 576 741 q 517 892 549 860 q 440 924 484 924 q 358 891 398 924 q 286 772 318 857 m 576 540 q 334 494 411 530 q 207 374 257 457 q 157 205 157 291 q 192 113 157 149 q 273 76 227 76 q 381 113 323 76 q 510 272 460 165 q 576 540 560 380 z "},"∑":{"ha":990,"x_min":83,"x_max":940,"o":"m 94 1011 l 933 1011 l 933 900 l 263 900 l 675 374 l 235 -183 l 940 -183 l 940 -292 l 83 -292 l 83 -165 l 503 369 l 94 892 l 94 1011 z "},"∏":{"ha":1143,"x_min":109,"x_max":1033,"o":"m 109 1011 l 1033 1011 l 1033 -292 l 903 -292 l 903 893 l 240 893 l 240 -292 l 109 -292 l 109 1011 z "},"π":{"ha":854,"x_min":33,"x_max":825,"o":"m 825 518 l 672 518 l 672 0 l 549 0 l 549 518 l 313 518 l 313 0 l 189 0 l 189 519 q 33 485 102 519 l 33 585 q 196 624 109 624 l 825 624 l 825 518 z "},"∫":{"ha":380,"x_min":7,"x_max":408,"o":"m 408 1194 q 388 1150 408 1167 q 337 1133 368 1133 q 296 1150 312 1133 q 267 1167 281 1167 q 248 1157 254 1167 q 241 1128 241 1147 q 255 954 241 1105 q 268 581 268 804 q 248 99 268 238 q 194 -92 227 -39 q 148 -134 176 -120 q 90 -149 120 -149 q 32 -125 57 -149 q 7 -67 7 -101 q 24 -23 7 -41 q 68 -5 41 -5 q 112 -27 91 -5 q 142 -50 134 -50 q 169 -19 159 -50 q 179 85 179 11 q 175 218 179 110 q 171 600 171 327 q 182 1033 171 926 q 210 1179 194 1139 q 257 1249 230 1226 q 314 1272 284 1272 q 380 1250 353 1272 q 408 1194 408 1228 z "},"ª":{"ha":507,"x_min":53,"x_max":440,"o":"m 367 519 l 367 590 l 364 590 q 227 510 306 510 q 103 566 154 510 q 53 703 53 622 q 104 836 53 781 q 227 892 156 892 q 363 810 307 892 l 366 810 l 366 882 l 440 882 l 440 519 l 367 519 m 376 699 q 341 785 376 749 q 256 821 305 821 q 169 785 205 821 q 132 703 132 750 q 168 614 132 651 q 254 578 203 578 q 340 614 304 578 q 376 699 376 650 z "},"º":{"ha":449,"x_min":29,"x_max":421,"o":"m 29 701 q 89 834 29 776 q 224 892 148 892 q 362 834 302 892 q 421 701 421 777 q 363 566 421 624 q 228 509 304 509 q 89 566 148 509 q 29 701 29 624 m 346 701 q 310 783 346 749 q 225 817 275 817 q 140 781 176 817 q 104 699 104 746 q 142 618 104 654 q 227 583 179 583 q 310 618 275 583 q 346 701 346 654 z "},"Ω":{"ha":1067,"x_min":86,"x_max":1000,"o":"m 336 109 q 224 197 263 154 q 134 350 165 262 q 102 544 102 437 q 156 788 102 677 q 312 960 210 900 q 548 1019 415 1019 q 898 847 776 1019 q 987 543 987 721 q 950 341 987 429 q 854 191 913 254 q 753 109 819 151 l 1000 113 l 1000 0 l 610 0 l 610 120 q 694 173 665 147 q 777 271 743 214 q 828 393 811 328 q 846 527 846 457 q 812 715 846 621 q 710 859 779 810 q 545 909 642 909 q 345 827 416 909 q 245 529 245 713 q 307 276 245 382 q 477 122 369 171 l 477 0 l 86 0 l 86 114 l 336 109 z "},"æ":{"ha":1143,"x_min":35,"x_max":1097,"o":"m 513 460 l 513 559 l 628 559 l 628 514 q 709 560 673 545 q 807 575 745 575 q 1011 486 925 575 q 1097 275 1097 397 l 1097 254 l 631 254 q 697 136 647 178 q 817 94 747 94 q 981 175 913 94 l 1067 113 q 808 -14 979 -14 q 629 46 718 -14 l 629 1 l 514 1 l 514 106 l 511 106 q 293 -16 423 -16 q 113 74 191 -16 q 35 282 35 163 q 113 488 35 401 q 296 575 191 575 q 510 460 421 575 l 513 460 m 644 353 l 974 353 q 808 467 920 467 q 644 353 697 467 m 526 278 q 474 409 526 355 q 349 464 422 464 q 214 409 270 464 q 158 278 158 355 q 214 148 158 203 q 345 93 270 93 q 473 148 419 93 q 526 278 526 202 z "},"ø":{"ha":694,"x_min":49,"x_max":650,"o":"m 582 619 l 648 562 l 574 475 q 650 292 650 381 q 562 78 650 168 q 350 -11 473 -11 q 192 35 268 -11 l 115 -53 l 49 5 l 123 93 q 67 183 85 141 q 50 286 50 225 q 140 489 50 401 q 350 576 231 576 q 507 532 427 576 l 582 619 m 201 180 l 429 443 q 351 460 383 460 q 221 407 275 460 q 167 279 167 353 q 201 180 167 235 m 498 386 l 269 125 q 347 106 312 106 q 478 159 423 106 q 533 288 533 213 q 498 386 533 334 z "},"¿":{"ha":534,"x_min":43,"x_max":494,"o":"m 184 690 q 206 742 184 721 q 258 764 228 764 q 310 742 288 764 q 332 690 332 720 q 310 638 332 661 q 258 616 288 616 q 206 638 228 616 q 184 690 184 660 m 382 104 l 494 104 q 424 -80 486 -16 q 268 -143 362 -143 q 109 -84 174 -143 q 43 60 43 -25 q 90 191 43 136 q 217 281 136 245 q 324 340 298 318 q 350 386 350 361 q 331 423 350 409 q 283 437 313 437 q 219 416 241 437 q 180 349 197 395 l 68 349 q 144 500 85 451 q 282 550 203 550 q 409 505 359 550 q 458 389 458 460 q 419 278 458 323 q 299 197 380 234 q 188 132 217 160 q 158 62 158 103 q 189 -3 158 24 q 264 -31 220 -31 q 382 104 370 -31 z "},"¡":{"ha":304,"x_min":79,"x_max":227,"o":"m 79 690 q 101 742 79 720 q 153 764 123 764 q 205 742 183 764 q 227 690 227 720 q 205 637 227 659 q 153 615 183 615 q 101 637 123 615 q 79 690 79 659 m 96 534 l 211 534 l 211 -114 l 96 -114 l 96 534 z "},"¬":{"ha":926,"x_min":94,"x_max":832,"o":"m 94 661 l 832 661 l 832 241 l 743 241 l 743 572 l 94 572 l 94 661 z "},"√":{"ha":762,"x_min":14,"x_max":715,"o":"m 715 1267 l 507 -53 l 170 644 l 36 579 l 14 625 l 216 725 l 490 165 l 667 1274 l 715 1267 z "},"ƒ":{"ha":772,"x_min":35,"x_max":739,"o":"m 35 -275 l 57 -170 q 163 -184 125 -184 q 220 -161 203 -184 q 248 -81 237 -138 l 368 625 l 232 625 l 248 720 l 385 720 l 400 811 q 471 974 420 936 q 599 1013 521 1013 q 661 1004 626 1013 l 739 986 l 715 882 q 607 899 648 899 q 552 877 568 899 q 522 790 535 856 l 509 720 l 647 720 l 631 625 l 492 625 l 363 -115 q 306 -251 346 -210 q 184 -292 265 -292 q 35 -275 119 -292 z "},"≈":{"ha":911,"x_min":89,"x_max":822,"o":"m 822 709 l 822 610 q 629 524 719 524 q 539 540 581 524 q 415 595 497 555 q 286 634 332 634 q 89 541 199 634 l 89 638 q 288 723 195 723 q 370 709 328 723 q 497 654 412 694 q 627 614 583 614 q 822 709 715 614 m 822 438 l 822 339 q 629 253 719 253 q 539 269 581 253 q 415 323 497 284 q 286 363 332 363 q 89 270 199 363 l 89 367 q 288 452 195 452 q 370 437 328 452 q 497 383 412 423 q 627 342 583 342 q 822 438 715 342 z "},"∆":{"ha":850,"x_min":8,"x_max":844,"o":"m 453 956 l 844 0 l 8 0 l 453 956 m 403 718 l 100 68 l 672 68 l 403 718 z "},"«":{"ha":694,"x_min":57,"x_max":643,"o":"m 187 696 l 313 696 l 180 376 l 310 56 l 186 56 l 57 374 l 187 696 m 515 694 l 643 694 l 510 375 l 639 54 l 514 54 l 385 375 l 515 694 z "},"»":{"ha":694,"x_min":53,"x_max":639,"o":"m 53 696 l 179 696 l 310 375 l 179 56 l 53 56 l 184 376 l 53 696 m 383 696 l 507 696 l 639 378 l 507 56 l 382 56 l 513 374 l 383 696 z "},"…":{"ha":1389,"x_min":132,"x_max":1257,"o":"m 132 89 q 161 158 132 130 q 231 187 189 187 q 301 158 272 187 q 330 89 330 130 q 301 18 330 47 q 231 -11 272 -11 q 161 18 189 -11 q 132 89 132 47 m 595 87 q 624 157 595 128 q 694 186 653 186 q 765 157 736 186 q 794 87 794 128 q 765 17 794 46 q 694 -12 736 -12 q 624 17 653 -12 q 595 87 595 46 m 1059 87 q 1087 157 1059 129 q 1157 186 1116 186 q 1227 157 1198 186 q 1257 87 1257 129 q 1227 18 1257 46 q 1157 -11 1198 -11 q 1087 18 1116 -11 q 1059 87 1059 46 z "}," ":{"ha":383,"x_min":0,"x_max":0,"o":""},"À":{"ha":839,"x_min":8,"x_max":821,"o":"m 412 897 l 821 0 l 697 0 l 596 221 l 229 221 l 131 0 l 8 0 l 412 897 m 412 627 l 273 319 l 551 319 l 412 627 m 505 950 l 406 950 l 249 1139 l 413 1139 l 505 950 z "},"Ã":{"ha":839,"x_min":8,"x_max":821,"o":"m 412 897 l 821 0 l 697 0 l 596 221 l 229 221 l 131 0 l 8 0 l 412 897 m 412 627 l 273 319 l 551 319 l 412 627 m 283 966 l 193 966 l 193 975 q 233 1080 193 1038 q 332 1121 272 1121 q 426 1093 363 1121 q 510 1064 488 1064 q 544 1078 534 1064 q 559 1122 555 1092 l 648 1122 q 610 1008 645 1048 q 515 968 575 968 q 414 1000 470 968 q 335 1031 359 1031 q 298 1015 312 1031 q 283 972 283 998 l 283 966 z "},"Õ":{"ha":1071,"x_min":54,"x_max":1007,"o":"m 54 437 q 195 758 54 625 q 534 892 336 892 q 867 757 728 892 q 1007 437 1007 623 q 869 106 1007 241 q 530 -29 731 -29 q 193 107 332 -29 q 54 437 54 243 m 882 432 q 779 673 882 575 q 525 771 675 771 q 280 671 382 771 q 178 432 178 572 q 282 192 178 290 q 539 94 387 94 q 780 194 679 94 q 882 432 882 294 m 399 966 l 309 966 l 309 975 q 348 1080 309 1038 q 448 1121 387 1121 q 541 1093 479 1121 q 625 1064 604 1064 q 660 1078 649 1064 q 674 1122 670 1092 l 763 1122 q 725 1008 760 1048 q 631 968 690 968 q 530 1000 585 968 q 450 1031 475 1031 q 413 1015 427 1031 q 399 972 399 998 l 399 966 z "},"Œ":{"ha":1071,"x_min":43,"x_max":1022,"o":"m 1022 863 l 1022 746 l 679 746 l 679 530 l 1021 530 l 1021 415 l 679 415 l 679 117 l 1019 117 l 1019 0 l 490 0 q 170 123 296 0 q 43 433 43 245 q 167 736 43 610 q 465 863 291 863 l 1022 863 m 566 117 l 566 746 l 517 746 q 331 712 400 746 q 214 604 262 679 q 167 431 167 528 q 199 294 167 358 q 281 188 231 230 q 380 132 332 146 q 510 117 429 117 l 566 117 z "},"œ":{"ha":1143,"x_min":39,"x_max":1099,"o":"m 979 178 l 1068 113 q 817 -12 966 -12 q 579 107 668 -12 q 468 15 532 44 q 342 -14 404 -14 q 130 77 222 -14 q 39 286 39 167 q 132 490 39 403 q 350 576 224 576 q 576 458 484 576 q 815 576 671 576 q 1017 485 935 576 q 1099 257 1099 393 l 633 257 q 818 94 670 94 q 979 178 918 94 m 643 355 l 977 355 q 812 468 918 468 q 643 355 692 468 m 519 282 q 469 408 519 355 q 346 460 418 460 q 213 407 267 460 q 158 278 158 355 q 213 157 158 208 q 342 106 267 106 q 466 159 413 106 q 519 282 519 212 z "},"–":{"ha":694,"x_min":-7,"x_max":703,"o":"m -7 410 l 703 410 l 703 286 l -7 286 l -7 410 z "},"—":{"ha":1389,"x_min":-8,"x_max":1396,"o":"m -8 410 l 1396 410 l 1396 286 l -8 286 l -8 410 z "},"“":{"ha":534,"x_min":64,"x_max":476,"o":"m 416 889 l 471 836 q 403 699 409 772 l 476 699 l 476 546 l 325 546 l 325 690 q 416 889 325 793 m 154 888 l 207 836 q 142 700 146 760 l 216 700 l 216 545 l 64 545 l 64 663 q 85 786 64 736 q 154 888 106 837 z "},"”":{"ha":534,"x_min":64,"x_max":476,"o":"m 325 879 l 476 879 l 476 728 q 387 538 476 625 l 334 589 q 401 725 397 653 l 325 725 l 325 879 m 64 879 l 216 879 l 216 741 q 123 536 216 632 l 69 590 q 139 725 133 647 l 64 725 l 64 879 z "},"‘":{"ha":304,"x_min":75,"x_max":229,"o":"m 164 890 l 220 836 q 153 701 159 781 l 229 701 l 229 547 l 75 547 l 75 700 q 99 794 75 743 q 164 890 123 846 z "},"’":{"ha":304,"x_min":72,"x_max":225,"o":"m 72 880 l 225 880 l 225 724 q 201 627 225 677 q 135 538 176 576 l 81 589 q 149 728 147 655 l 72 728 l 72 880 z "},"÷":{"ha":926,"x_min":94,"x_max":833,"o":"m 404 732 l 404 734 q 421 773 404 757 q 463 789 439 789 q 502 772 485 789 q 518 732 518 755 q 502 691 518 708 q 463 673 486 673 q 421 691 439 673 q 404 732 404 709 m 94 492 l 833 492 l 833 406 l 94 406 l 94 492 m 463 114 q 421 131 439 114 q 404 171 404 148 q 421 212 404 195 q 463 229 439 229 q 503 212 486 229 q 519 172 519 195 q 503 131 519 148 q 463 114 486 114 z "},"◊":{"ha":686,"x_min":31,"x_max":652,"o":"m 652 517 l 383 0 l 300 0 l 31 517 l 300 1035 l 383 1035 l 652 517 m 569 517 l 342 960 l 115 517 l 342 75 l 569 517 z "},"ÿ":{"ha":694,"x_min":43,"x_max":642,"o":"m 43 559 l 176 559 l 379 256 l 519 559 l 642 559 l 264 -262 l 140 -262 l 325 138 l 43 559 m 139 745 q 160 794 139 774 q 211 815 181 815 q 261 794 240 815 q 282 745 282 774 q 261 693 282 715 q 211 672 240 672 q 160 693 181 672 q 139 745 139 714 m 414 745 q 435 794 414 774 q 485 815 456 815 q 536 794 515 815 q 557 745 557 774 q 536 693 557 714 q 485 672 515 672 q 435 693 456 672 q 414 745 414 715 z "},"Ÿ":{"ha":766,"x_min":39,"x_max":722,"o":"m 39 864 l 170 864 l 382 517 l 591 864 l 722 864 l 439 396 l 439 0 l 321 0 l 321 395 l 39 864 m 175 1032 q 196 1082 175 1061 q 247 1103 217 1103 q 297 1082 276 1103 q 318 1032 318 1061 q 297 981 318 1002 q 247 960 276 960 q 196 981 217 960 q 175 1032 175 1002 m 450 1032 q 471 1082 450 1061 q 521 1103 492 1103 q 572 1082 551 1103 q 593 1032 593 1061 q 572 981 593 1002 q 521 960 551 960 q 471 981 492 960 q 450 1032 450 1002 z "},"∕":{"ha":187,"x_min":-254,"x_max":441,"o":"m 353 892 l 441 892 l -164 -61 l -254 -61 l 353 892 z "},"€":{"ha":718,"x_min":25,"x_max":668,"o":"m 668 33 q 468 -29 576 -29 q 225 61 323 -29 q 97 315 127 152 l 25 315 l 50 396 l 89 396 q 89 468 87 432 l 31 468 l 49 549 l 98 549 q 227 802 130 711 q 463 893 323 893 q 668 835 558 893 l 668 701 q 467 771 558 771 q 222 549 272 771 l 607 549 l 587 468 l 211 468 q 210 429 210 456 l 211 396 l 566 396 l 546 315 l 221 315 q 476 96 267 96 q 668 168 567 96 l 668 33 z "},"‹":{"ha":376,"x_min":52,"x_max":309,"o":"m 183 696 l 309 696 l 176 376 l 306 56 l 182 56 l 52 374 l 183 696 z "},"›":{"ha":378,"x_min":49,"x_max":307,"o":"m 49 696 l 175 696 l 307 375 l 175 56 l 50 56 l 180 376 l 49 696 z "},"":{"ha":694,"x_min":28,"x_max":624,"o":"m 624 650 l 509 650 q 469 748 505 713 q 375 782 434 782 q 287 739 326 782 q 249 642 249 696 l 249 561 l 408 561 l 408 454 l 249 454 l 249 0 l 135 0 l 135 454 l 28 454 l 28 561 l 135 561 l 135 657 q 207 826 135 756 q 380 896 278 896 q 549 831 474 896 q 624 650 624 766 m 510 562 l 624 562 l 624 0 l 510 0 l 510 562 z "},"":{"ha":694,"x_min":28,"x_max":623,"o":"m 623 0 l 509 0 l 509 648 q 471 742 509 704 q 378 781 433 781 q 287 738 326 781 q 248 636 248 694 l 248 559 l 408 559 l 408 453 l 248 453 l 248 0 l 134 0 l 134 453 l 28 453 l 28 559 l 135 559 l 135 657 q 205 825 135 755 q 375 895 276 895 q 549 828 475 895 q 623 671 623 761 l 623 0 z "},"‡":{"ha":608,"x_min":49,"x_max":546,"o":"m 319 660 q 428 681 371 660 q 482 693 465 693 q 527 675 508 693 q 546 633 546 658 q 529 594 546 609 q 484 579 512 579 q 405 596 448 579 q 319 614 361 614 q 339 526 319 574 q 358 454 358 477 q 339 385 358 429 q 321 322 321 340 q 339 254 321 301 q 357 180 357 208 q 339 112 357 158 q 321 32 321 65 q 412 48 363 32 q 485 65 461 65 q 528 50 511 65 q 545 9 545 35 q 528 -33 545 -16 q 485 -49 511 -49 q 411 -32 457 -49 q 319 -16 364 -16 q 340 -123 319 -65 q 357 -199 357 -174 q 298 -258 357 -258 q 255 -242 272 -258 q 239 -200 239 -226 q 258 -116 239 -172 q 277 -14 277 -60 q 182 -31 235 -14 q 111 -49 130 -49 q 67 -32 85 -49 q 49 7 49 -16 q 66 50 49 34 q 111 65 83 65 q 188 48 139 65 q 275 32 237 32 q 257 114 275 68 q 239 189 239 160 q 257 254 239 215 q 275 323 275 294 q 256 388 275 347 q 237 458 237 429 q 255 528 237 482 q 275 614 273 573 q 191 597 242 614 q 111 579 140 579 q 66 595 84 579 q 49 636 49 611 q 68 677 49 660 q 114 694 87 694 q 179 677 132 694 q 277 660 226 660 q 258 765 277 707 q 240 844 240 823 q 257 886 240 869 q 300 903 274 903 q 341 886 325 903 q 358 843 358 869 q 339 763 358 814 q 319 660 321 712 z "},"·":{"ha":304,"x_min":54,"x_max":252,"o":"m 54 435 q 83 503 54 475 q 153 532 112 532 q 222 503 193 532 q 252 435 252 475 q 222 365 252 394 q 153 336 193 336 q 83 365 113 336 q 54 435 54 394 z "},"‚":{"ha":304,"x_min":18,"x_max":283,"o":"m 138 171 l 283 114 l 123 -233 l 18 -192 l 138 171 z "},"„":{"ha":534,"x_min":62,"x_max":476,"o":"m 325 157 l 476 157 l 476 16 q 455 -90 476 -45 q 386 -186 433 -135 l 334 -134 q 401 3 395 -69 l 325 3 l 325 157 m 62 155 l 215 155 l 215 14 q 123 -186 215 -98 l 69 -134 q 139 1 128 -75 l 62 1 l 62 155 z "},"‰":{"ha":1605,"x_min":50,"x_max":1463,"o":"m 50 640 q 102 825 50 758 q 245 892 155 892 q 386 825 335 892 q 437 643 437 759 q 386 466 437 530 q 244 401 334 401 q 103 466 156 401 q 50 640 50 531 m 142 653 q 244 490 142 490 q 345 647 345 490 q 244 802 345 802 q 142 653 142 802 m 778 892 l 867 892 l 261 -61 l 172 -61 l 778 892 m 1075 176 q 1127 361 1075 294 q 1271 428 1179 428 q 1412 362 1360 428 q 1463 179 1463 296 q 1411 3 1463 67 q 1270 -61 1359 -61 q 1128 3 1181 -61 q 1075 176 1075 68 m 1166 189 q 1270 26 1166 26 q 1369 183 1369 26 q 1270 339 1369 339 q 1166 189 1166 339 m 599 176 q 651 361 599 294 q 794 428 703 428 q 935 362 884 428 q 986 179 986 296 q 935 3 986 66 q 793 -61 883 -61 q 652 3 705 -61 q 599 176 599 68 m 692 178 q 719 66 692 106 q 793 26 745 26 q 893 183 893 26 q 793 339 893 339 q 692 178 692 339 z "},"Â":{"ha":839,"x_min":8,"x_max":821,"o":"m 412 897 l 821 0 l 697 0 l 596 221 l 229 221 l 131 0 l 8 0 l 412 897 m 412 627 l 273 319 l 551 319 l 412 627 m 422 1065 l 344 950 l 205 950 l 353 1139 l 481 1139 l 634 950 l 496 950 l 422 1065 z "},"Ê":{"ha":608,"x_min":81,"x_max":559,"o":"m 81 864 l 559 864 l 559 746 l 197 746 l 197 530 l 559 530 l 559 414 l 197 414 l 197 117 l 559 117 l 559 0 l 81 0 l 81 864 m 307 1065 l 229 950 l 90 950 l 237 1139 l 366 1139 l 519 950 l 380 950 l 307 1065 z "},"Á":{"ha":839,"x_min":8,"x_max":821,"o":"m 412 897 l 821 0 l 697 0 l 596 221 l 229 221 l 131 0 l 8 0 l 412 897 m 412 627 l 273 319 l 551 319 l 412 627 m 340 950 l 431 1139 l 591 1139 l 441 950 l 340 950 z "},"Ë":{"ha":608,"x_min":81,"x_max":559,"o":"m 81 864 l 559 864 l 559 746 l 197 746 l 197 530 l 559 530 l 559 414 l 197 414 l 197 117 l 559 117 l 559 0 l 81 0 l 81 864 m 96 1032 q 117 1082 96 1061 q 168 1103 138 1103 q 218 1082 197 1103 q 239 1032 239 1061 q 218 981 239 1002 q 168 960 197 960 q 117 981 138 960 q 96 1032 96 1002 m 370 1032 q 391 1082 370 1061 q 441 1103 412 1103 q 492 1082 471 1103 q 513 1032 513 1061 q 492 981 513 1002 q 441 960 471 960 q 391 981 412 960 q 370 1032 370 1002 z "},"È":{"ha":608,"x_min":81,"x_max":559,"o":"m 81 864 l 559 864 l 559 746 l 197 746 l 197 530 l 559 530 l 559 414 l 197 414 l 197 117 l 559 117 l 559 0 l 81 0 l 81 864 m 389 950 l 290 950 l 134 1139 l 298 1139 l 389 950 z "},"Í":{"ha":304,"x_min":72,"x_max":322,"o":"m 89 864 l 205 864 l 205 0 l 89 0 l 89 864 m 72 950 l 162 1139 l 322 1139 l 172 950 l 72 950 z "},"Î":{"ha":304,"x_min":-62,"x_max":366,"o":"m 89 864 l 205 864 l 205 0 l 89 0 l 89 864 m 154 1065 l 76 950 l -62 950 l 85 1139 l 214 1139 l 366 950 l 228 950 l 154 1065 z "},"Ï":{"ha":304,"x_min":-57,"x_max":361,"o":"m 89 864 l 205 864 l 205 0 l 89 0 l 89 864 m -57 1032 q -36 1082 -57 1061 q 15 1103 -15 1103 q 65 1082 44 1103 q 86 1032 86 1061 q 65 981 86 1002 q 15 960 44 960 q -36 981 -15 960 q -57 1032 -57 1002 m 218 1032 q 239 1082 218 1061 q 289 1103 260 1103 q 340 1082 319 1103 q 361 1032 361 1061 q 340 981 361 1002 q 289 960 319 960 q 239 981 260 960 q 218 1032 218 1002 z "},"Ì":{"ha":304,"x_min":-20,"x_max":236,"o":"m 89 864 l 205 864 l 205 0 l 89 0 l 89 864 m 236 950 l 137 950 l -20 1139 l 144 1139 l 236 950 z "},"Ó":{"ha":1071,"x_min":54,"x_max":1007,"o":"m 54 437 q 195 758 54 625 q 534 892 336 892 q 867 757 728 892 q 1007 437 1007 623 q 869 106 1007 241 q 530 -29 731 -29 q 193 107 332 -29 q 54 437 54 243 m 882 432 q 779 673 882 575 q 525 771 675 771 q 280 671 382 771 q 178 432 178 572 q 282 192 178 290 q 539 94 387 94 q 780 194 679 94 q 882 432 882 294 m 456 950 l 546 1139 l 706 1139 l 556 950 l 456 950 z "},"Ô":{"ha":1071,"x_min":54,"x_max":1007,"o":"m 54 437 q 195 758 54 625 q 534 892 336 892 q 867 757 728 892 q 1007 437 1007 623 q 869 106 1007 241 q 530 -29 731 -29 q 193 107 332 -29 q 54 437 54 243 m 882 432 q 779 673 882 575 q 525 771 675 771 q 280 671 382 771 q 178 432 178 572 q 282 192 178 290 q 539 94 387 94 q 780 194 679 94 q 882 432 882 294 m 537 1065 l 459 950 l 321 950 l 468 1139 l 597 1139 l 749 950 l 611 950 l 537 1065 z "},"Ò":{"ha":1071,"x_min":54,"x_max":1007,"o":"m 54 437 q 195 758 54 625 q 534 892 336 892 q 867 757 728 892 q 1007 437 1007 623 q 869 106 1007 241 q 530 -29 731 -29 q 193 107 332 -29 q 54 437 54 243 m 882 432 q 779 673 882 575 q 525 771 675 771 q 280 671 382 771 q 178 432 178 572 q 282 192 178 290 q 539 94 387 94 q 780 194 679 94 q 882 432 882 294 m 620 950 l 521 950 l 364 1139 l 528 1139 l 620 950 z "},"Ú":{"ha":839,"x_min":86,"x_max":757,"o":"m 86 863 l 204 863 l 204 332 q 261 149 204 214 q 421 85 317 85 q 582 144 524 85 q 639 311 639 203 l 639 863 l 757 863 l 757 319 q 666 66 757 161 q 425 -29 576 -29 q 179 67 271 -29 q 86 351 86 163 l 86 863 m 340 950 l 431 1139 l 591 1139 l 441 950 l 340 950 z "},"Û":{"ha":839,"x_min":86,"x_max":757,"o":"m 86 863 l 204 863 l 204 332 q 261 149 204 214 q 421 85 317 85 q 582 144 524 85 q 639 311 639 203 l 639 863 l 757 863 l 757 319 q 666 66 757 161 q 425 -29 576 -29 q 179 67 271 -29 q 86 351 86 163 l 86 863 m 422 1065 l 344 950 l 205 950 l 353 1139 l 481 1139 l 634 950 l 496 950 l 422 1065 z "},"Ù":{"ha":839,"x_min":86,"x_max":757,"o":"m 86 863 l 204 863 l 204 332 q 261 149 204 214 q 421 85 317 85 q 582 144 524 85 q 639 311 639 203 l 639 863 l 757 863 l 757 319 q 666 66 757 161 q 425 -29 576 -29 q 179 67 271 -29 q 86 351 86 163 l 86 863 m 505 950 l 406 950 l 249 1139 l 413 1139 l 505 950 z "},"ı":{"ha":304,"x_min":90,"x_max":207,"o":"m 90 559 l 207 559 l 207 0 l 90 0 l 90 559 z "},"ˆ":{"ha":463,"x_min":17,"x_max":446,"o":"m 233 778 l 155 663 l 17 663 l 164 851 l 293 851 l 446 663 l 307 663 l 233 778 z "},"˜":{"ha":463,"x_min":4,"x_max":458,"o":"m 94 679 l 4 679 l 4 688 q 43 792 4 751 q 143 833 83 833 q 237 805 174 833 q 321 777 299 777 q 355 790 345 777 q 370 835 366 804 l 458 835 q 421 721 456 760 q 326 681 386 681 q 225 713 281 681 q 146 743 170 743 q 109 727 123 743 q 94 685 94 711 l 94 679 z "},"ˉ":{"ha":463,"x_min":20,"x_max":443,"o":"m 20 685 l 20 785 l 443 785 l 443 685 l 20 685 z "},"˘":{"ha":463,"x_min":31,"x_max":432,"o":"m 349 844 l 432 844 q 370 714 421 759 q 233 669 318 669 q 31 844 54 669 l 114 844 q 231 754 133 754 q 349 844 330 754 z "},"˙":{"ha":463,"x_min":160,"x_max":302,"o":"m 160 732 q 181 783 160 762 q 231 804 201 804 q 281 783 260 804 q 302 732 302 762 q 281 682 302 703 q 231 661 260 661 q 181 682 201 661 q 160 732 160 703 z "},"˚":{"ha":463,"x_min":110,"x_max":354,"o":"m 232 632 q 145 669 181 632 q 110 760 110 707 q 146 844 110 808 q 232 880 182 880 q 318 844 283 880 q 354 757 354 808 q 318 669 354 705 q 232 632 283 632 m 233 831 q 183 809 204 831 q 161 758 161 788 q 182 705 161 727 q 233 684 203 684 q 284 705 262 684 q 306 757 306 727 q 285 809 306 788 q 233 831 264 831 z "},"¸":{"ha":463,"x_min":72,"x_max":366,"o":"m 146 -104 l 182 16 l 272 16 l 250 -57 q 335 -91 305 -64 q 366 -157 366 -118 q 311 -251 366 -215 q 164 -286 256 -286 q 72 -278 124 -286 l 79 -199 l 94 -199 l 132 -201 q 253 -150 253 -201 q 157 -104 253 -104 l 146 -104 z "},"˝":{"ha":463,"x_min":39,"x_max":518,"o":"m 39 663 l 122 851 l 281 851 l 138 663 l 39 663 m 275 663 l 361 851 l 518 851 l 378 663 l 275 663 z "},"˛":{"ha":463,"x_min":123,"x_max":421,"o":"m 153 17 l 236 17 q 210 -96 210 -45 q 238 -169 210 -140 q 307 -199 266 -199 q 421 -167 359 -199 l 421 -248 q 272 -289 340 -289 q 164 -248 205 -289 q 123 -139 123 -206 q 153 17 123 -83 z "},"ˇ":{"ha":463,"x_min":28,"x_max":457,"o":"m 243 736 l 318 851 l 457 851 l 304 663 l 174 663 l 28 851 l 167 851 l 243 736 z "},"Ł":{"ha":534,"x_min":39,"x_max":517,"o":"m 118 864 l 233 864 l 233 555 l 350 690 l 350 553 l 233 419 l 233 115 l 517 115 l 517 0 l 118 0 l 118 285 l 39 192 l 39 329 l 118 421 l 118 864 z "},"ł":{"ha":304,"x_min":32,"x_max":300,"o":"m 109 882 l 222 882 l 222 543 l 300 608 l 300 494 l 222 428 l 222 0 l 109 0 l 109 334 l 32 269 l 32 382 l 109 447 l 109 882 z "},"Š":{"ha":694,"x_min":52,"x_max":639,"o":"m 618 768 l 522 692 q 453 750 484 731 q 364 770 422 770 q 261 741 300 770 q 221 667 221 712 q 256 597 221 627 q 374 531 290 567 q 504 465 457 496 q 580 397 550 434 q 624 318 610 359 q 639 231 639 277 q 561 47 639 123 q 371 -29 482 -29 q 179 30 262 -29 q 52 208 96 90 l 170 241 q 367 96 234 96 q 474 134 431 96 q 517 232 517 173 q 494 303 517 267 q 439 361 472 338 q 333 414 406 385 q 221 468 260 444 q 153 527 182 493 q 112 595 125 562 q 98 668 98 629 q 173 826 98 761 q 354 892 248 892 q 497 861 425 892 q 618 768 570 831 m 359 1023 l 435 1139 l 574 1139 l 421 950 l 290 950 l 144 1139 l 283 1139 l 359 1023 z "},"š":{"ha":463,"x_min":28,"x_max":457,"o":"m 416 493 l 338 424 q 285 457 307 446 q 232 468 262 468 q 160 415 160 468 q 251 341 160 377 q 382 263 342 306 q 422 160 422 220 q 365 37 422 90 q 229 -16 307 -16 q 35 94 111 -16 l 127 139 q 229 92 176 92 q 293 112 266 92 q 321 158 321 132 q 224 242 321 205 q 91 318 128 279 q 54 412 54 356 q 107 529 54 482 q 239 575 159 575 q 416 493 318 575 m 243 736 l 318 851 l 457 851 l 304 663 l 174 663 l 28 851 l 167 851 l 243 736 z "},"Ž":{"ha":694,"x_min":45,"x_max":648,"o":"m 65 864 l 648 864 l 236 117 l 640 117 l 640 0 l 45 0 l 454 746 l 65 746 l 65 864 m 359 1023 l 435 1139 l 574 1139 l 421 950 l 290 950 l 144 1139 l 283 1139 l 359 1023 z "},"ž":{"ha":608,"x_min":28,"x_max":564,"o":"m 35 559 l 564 559 l 227 103 l 561 103 l 561 0 l 28 0 l 368 457 l 35 457 l 35 559 m 317 736 l 392 851 l 531 851 l 378 663 l 248 663 l 102 851 l 241 851 l 317 736 z "},"¦":{"ha":732,"x_min":321,"x_max":411,"o":"m 321 966 l 411 966 l 411 475 l 321 475 l 321 966 m 321 302 l 411 302 l 411 -187 l 321 -187 l 321 302 z "},"Ð":{"ha":839,"x_min":18,"x_max":803,"o":"m 107 863 l 317 863 q 684 728 564 863 q 803 431 803 594 q 676 129 803 258 q 322 0 549 0 l 107 0 l 107 378 l 18 378 l 18 481 l 107 481 l 107 863 m 220 747 l 220 482 l 440 482 l 440 379 l 220 379 l 220 115 l 289 115 q 576 200 471 115 q 681 429 681 284 q 583 658 681 568 q 334 747 486 747 l 220 747 z "},"ð":{"ha":694,"x_min":64,"x_max":665,"o":"m 192 823 l 248 901 q 386 839 311 884 l 514 900 l 551 822 l 465 778 q 665 336 665 607 q 580 83 665 182 q 363 -16 494 -16 q 153 74 242 -16 q 64 283 64 163 q 154 486 64 397 q 361 574 244 574 q 447 560 414 574 q 511 517 479 547 l 514 519 q 370 730 484 642 l 179 636 l 139 715 l 283 786 l 192 823 m 543 285 q 490 407 543 355 q 364 458 437 458 q 235 405 290 458 q 180 278 180 351 q 235 157 180 210 q 359 104 289 104 q 490 157 437 104 q 543 285 543 209 z "},"Ý":{"ha":766,"x_min":39,"x_max":722,"o":"m 39 864 l 170 864 l 382 517 l 591 864 l 722 864 l 439 396 l 439 0 l 321 0 l 321 395 l 39 864 m 304 950 l 395 1139 l 555 1139 l 405 950 l 304 950 z "},"ý":{"ha":694,"x_min":43,"x_max":642,"o":"m 43 559 l 176 559 l 379 256 l 519 559 l 642 559 l 264 -262 l 140 -262 l 325 138 l 43 559 m 268 663 l 358 851 l 518 851 l 368 663 l 268 663 z "},"Þ":{"ha":694,"x_min":131,"x_max":629,"o":"m 245 864 l 245 688 l 292 688 q 537 619 445 688 q 629 439 629 551 q 532 252 629 326 q 281 178 434 178 l 245 178 l 245 0 l 131 0 l 131 864 l 245 864 m 245 583 l 245 281 q 448 322 391 283 q 505 437 505 361 q 450 546 505 508 q 289 583 394 583 l 245 583 z "},"þ":{"ha":766,"x_min":109,"x_max":703,"o":"m 222 880 l 222 446 l 225 446 q 312 539 251 503 q 436 575 372 575 q 624 489 546 575 q 703 283 703 404 q 625 75 703 163 q 440 -12 547 -12 q 314 21 372 -12 q 225 113 256 54 l 222 113 l 222 -262 l 109 -262 l 109 880 l 222 880 m 579 281 q 523 411 579 356 q 392 467 467 467 q 259 412 315 467 q 204 281 204 357 q 260 150 204 205 q 392 94 316 94 q 524 150 468 94 q 579 281 579 205 z "},"×":{"ha":926,"x_min":125,"x_max":804,"o":"m 125 726 l 187 789 l 464 511 l 742 789 l 804 725 l 528 449 l 802 174 l 739 111 l 464 386 l 189 111 l 126 174 l 401 449 l 125 726 z "},"¹":{"ha":534,"x_min":121,"x_max":311,"o":"m 151 886 l 311 886 l 311 332 l 228 332 l 228 803 l 121 803 l 151 886 z "},"²":{"ha":534,"x_min":56,"x_max":468,"o":"m 249 415 l 463 415 l 463 332 l 56 332 l 338 627 q 383 728 383 674 q 352 791 383 767 q 268 815 320 815 q 185 795 210 815 q 153 729 159 775 l 69 729 q 267 900 79 900 q 412 850 356 900 q 468 721 468 800 q 411 582 468 640 l 249 415 z "},"³":{"ha":534,"x_min":69,"x_max":460,"o":"m 172 761 l 82 761 l 82 765 q 132 863 82 824 q 258 901 181 901 q 397 862 345 901 q 449 755 449 822 q 427 684 449 711 q 358 631 406 657 q 436 571 412 602 q 460 485 460 541 q 406 367 460 412 q 264 321 351 321 q 130 358 182 321 q 69 473 77 395 l 158 473 q 265 397 166 397 q 342 422 313 397 q 371 488 371 448 q 245 589 371 586 l 245 668 q 358 755 358 671 q 333 806 358 787 q 265 825 308 825 q 172 761 185 825 z "},"½":{"ha":1258,"x_min":97,"x_max":1162,"o":"m 127 886 l 288 886 l 288 331 l 204 331 l 204 802 l 97 802 l 127 886 m 831 892 l 920 892 l 315 -61 l 224 -61 l 831 892 m 943 41 l 1156 41 l 1156 -43 l 749 -43 l 1031 252 q 1077 353 1077 300 q 1045 417 1077 393 q 962 441 1014 441 q 879 421 904 441 q 846 355 853 401 l 763 355 q 960 526 773 526 q 1106 475 1050 526 q 1162 347 1162 425 q 1105 208 1162 266 l 943 41 z "},"¼":{"ha":1258,"x_min":102,"x_max":1159,"o":"m 132 886 l 292 886 l 292 331 l 209 331 l 209 802 l 102 802 l 132 886 m 867 892 l 956 892 l 350 -61 l 260 -61 l 867 892 m 1106 530 l 1106 134 l 1159 134 l 1159 59 l 1106 59 l 1106 -43 l 1029 -43 l 1029 59 l 713 59 l 1106 530 m 1028 324 l 869 134 l 1028 134 l 1028 324 z "},"¾":{"ha":1258,"x_min":75,"x_max":1183,"o":"m 178 760 l 88 760 l 88 764 q 138 862 88 823 q 264 901 187 901 q 403 861 351 901 q 455 755 455 821 q 433 684 455 711 q 364 630 412 656 q 442 570 418 601 q 466 484 466 540 q 412 366 466 412 q 270 320 357 320 q 136 357 189 320 q 75 473 83 395 l 164 473 q 271 397 172 397 q 348 422 319 397 q 377 487 377 447 q 252 588 377 585 l 252 667 q 364 755 364 670 q 339 805 364 786 q 271 825 314 825 q 178 760 191 825 m 923 892 l 1012 892 l 406 -61 l 316 -61 l 923 892 m 1131 530 l 1131 134 l 1183 134 l 1183 59 l 1131 59 l 1131 -43 l 1054 -43 l 1054 59 l 737 59 l 1131 530 m 1053 324 l 893 134 l 1053 134 l 1053 324 z "},"­":{"ha":463,"x_min":74,"x_max":389,"o":"m 74 338 l 389 338 l 389 222 l 74 222 l 74 338 z "},"¯":{"ha":694,"x_min":-9,"x_max":704,"o":"m -9 966 l -9 1036 l 704 1036 l 704 966 l -9 966 z "},"Ă":{"ha":839,"x_min":8,"x_max":821,"o":"m 412 897 l 821 0 l 697 0 l 596 221 l 229 221 l 131 0 l 8 0 l 412 897 m 412 627 l 273 319 l 551 319 l 412 627 m 525 1125 l 608 1125 q 546 995 597 1040 q 410 950 494 950 q 207 1125 230 950 l 290 1125 q 407 1035 309 1035 q 525 1125 506 1035 z "},"ă":{"ha":766,"x_min":69,"x_max":668,"o":"m 550 559 l 668 559 l 668 0 l 550 0 l 550 111 q 336 -16 464 -16 q 148 71 226 -16 q 69 282 69 158 q 148 487 69 399 q 334 575 227 575 q 458 539 399 575 q 550 446 517 503 l 550 559 m 566 278 q 511 409 566 355 q 379 464 456 464 q 249 410 304 464 q 193 282 193 355 q 248 147 193 203 q 379 92 302 92 q 511 147 456 92 q 566 278 566 202 m 504 844 l 587 844 q 525 714 576 759 q 389 669 473 669 q 186 844 209 669 l 269 844 q 386 754 288 754 q 504 844 485 754 z "},"Ą":{"ha":839,"x_min":8,"x_max":971,"o":"m 971 -248 q 821 -289 890 -289 q 713 -247 755 -289 q 672 -139 672 -205 q 697 0 672 -87 l 596 221 l 229 221 l 131 0 l 8 0 l 412 897 l 821 0 l 779 0 q 758 -96 758 -51 q 786 -169 758 -138 q 857 -199 814 -199 q 971 -167 907 -199 l 971 -248 m 551 319 l 412 627 l 273 319 l 551 319 z "},"ą":{"ha":766,"x_min":69,"x_max":823,"o":"m 823 -248 q 673 -289 743 -289 q 566 -247 608 -289 q 525 -139 525 -205 q 533 -71 525 -108 l 550 0 l 550 111 q 336 -16 465 -16 q 146 73 222 -16 q 69 282 69 161 q 147 486 69 397 q 334 575 224 575 q 456 541 397 575 q 550 446 515 506 l 550 559 l 668 559 l 668 0 l 632 0 q 611 -96 611 -51 q 639 -169 611 -138 q 710 -199 667 -199 q 823 -167 760 -199 l 823 -248 m 379 92 q 511 146 456 92 q 566 278 566 201 q 511 409 566 355 q 379 464 456 464 q 249 410 304 464 q 193 282 193 355 q 247 148 193 203 q 379 92 301 92 z "},"Ć":{"ha":839,"x_min":49,"x_max":789,"o":"m 789 835 l 789 701 q 532 770 649 770 q 278 672 381 770 q 175 433 175 575 q 280 192 175 289 q 545 96 386 96 q 789 168 660 96 l 789 33 q 534 -29 671 -29 q 191 107 334 -29 q 49 435 49 243 q 189 758 49 623 q 526 892 329 892 q 789 835 653 892 m 439 950 l 530 1139 l 690 1139 l 540 950 l 439 950 z "},"ć":{"ha":534,"x_min":33,"x_max":498,"o":"m 498 171 l 498 36 q 323 -16 408 -16 q 120 72 208 -16 q 33 273 33 159 q 120 489 33 404 q 338 575 207 575 q 498 534 416 575 l 498 403 q 330 460 410 460 q 202 408 257 460 q 147 288 147 357 q 199 156 147 210 q 325 103 250 103 q 498 171 401 103 m 241 663 l 332 851 l 492 851 l 342 663 l 241 663 z "},"Č":{"ha":839,"x_min":49,"x_max":789,"o":"m 789 835 l 789 701 q 532 770 649 770 q 278 672 381 770 q 175 433 175 575 q 280 192 175 289 q 545 96 386 96 q 789 168 660 96 l 789 33 q 534 -29 671 -29 q 191 107 334 -29 q 49 435 49 243 q 189 758 49 623 q 526 892 329 892 q 789 835 653 892 m 519 1023 l 595 1139 l 734 1139 l 581 950 l 450 950 l 304 1139 l 444 1139 l 519 1023 z "},"č":{"ha":534,"x_min":33,"x_max":536,"o":"m 498 171 l 498 36 q 323 -16 408 -16 q 120 72 208 -16 q 33 273 33 159 q 120 489 33 404 q 338 575 207 575 q 498 534 416 575 l 498 403 q 330 460 410 460 q 202 408 257 460 q 147 288 147 357 q 199 156 147 210 q 325 103 250 103 q 498 171 401 103 m 322 736 l 397 851 l 536 851 l 384 663 l 253 663 l 107 851 l 246 851 l 322 736 z "},"Ď":{"ha":839,"x_min":92,"x_max":793,"o":"m 92 864 l 301 864 q 671 732 550 864 q 793 432 793 601 q 667 131 793 262 q 302 0 542 0 l 92 0 l 92 864 m 210 749 l 210 117 l 216 117 q 414 129 348 117 q 541 180 481 140 q 635 287 600 220 q 671 432 671 353 q 614 612 671 532 q 480 721 558 693 q 269 749 401 749 l 210 749 m 397 1023 l 472 1139 l 611 1139 l 458 950 l 328 950 l 182 1139 l 321 1139 l 397 1023 z "},"ď":{"ha":943,"x_min":65,"x_max":888,"o":"m 547 880 l 664 880 l 664 0 l 549 0 l 549 117 q 330 -16 465 -16 q 143 72 221 -16 q 65 282 65 159 q 144 489 65 402 q 334 575 224 575 q 456 538 399 575 q 547 443 513 502 l 547 880 m 561 281 q 506 411 561 356 q 375 467 451 467 q 242 413 296 467 q 187 281 187 359 q 243 150 187 206 q 372 94 298 94 q 506 149 451 94 q 561 281 561 203 m 888 755 q 817 606 888 675 l 774 646 q 827 759 827 701 l 766 759 l 766 880 l 888 880 l 888 755 z "},"Đ":{"ha":839,"x_min":-49,"x_max":793,"o":"m 92 511 l 92 864 l 301 864 q 671 732 549 864 q 793 432 793 600 q 667 132 793 263 q 302 0 542 0 l 92 0 l 92 411 l -49 411 l -49 511 l 92 511 m 375 411 l 210 411 l 210 117 l 216 117 q 398 126 326 117 q 533 175 470 136 q 633 282 596 214 q 671 432 671 350 q 610 617 671 534 q 471 724 550 700 q 269 749 392 749 l 210 749 l 210 511 l 375 511 l 375 411 z "},"đ":{"ha":766,"x_min":65,"x_max":789,"o":"m 664 0 l 549 0 l 549 117 q 330 -16 465 -16 q 141 74 218 -16 q 65 282 65 163 q 143 487 65 399 q 334 575 221 575 q 454 540 397 575 q 547 443 511 505 l 547 685 l 367 685 l 367 785 l 547 785 l 547 880 l 664 880 l 664 785 l 789 785 l 789 685 l 664 685 l 664 0 m 372 94 q 506 149 451 94 q 561 281 561 203 q 506 411 561 356 q 375 467 451 467 q 242 413 296 467 q 187 281 187 359 q 242 150 187 206 q 372 94 298 94 z "},"Ę":{"ha":608,"x_min":81,"x_max":559,"o":"m 555 -248 q 406 -289 473 -289 q 298 -247 339 -289 q 257 -139 257 -205 q 282 0 257 -87 l 81 0 l 81 864 l 559 864 l 559 746 l 197 746 l 197 530 l 559 530 l 559 414 l 197 414 l 197 117 l 559 117 l 559 0 l 363 0 q 343 -96 343 -53 q 371 -169 343 -138 q 441 -199 399 -199 q 555 -167 492 -199 l 555 -248 z "},"ę":{"ha":694,"x_min":53,"x_max":637,"o":"m 570 -248 q 419 -289 487 -289 q 312 -247 353 -289 q 271 -139 271 -205 q 292 -11 271 -99 q 118 92 182 8 q 53 282 53 175 q 139 489 53 404 q 346 575 224 575 q 555 485 472 575 q 637 257 637 394 l 160 257 q 225 135 174 178 q 351 92 277 92 q 519 175 451 92 l 606 110 q 372 -16 518 -5 q 357 -96 357 -55 q 385 -169 357 -138 q 456 -199 413 -199 q 570 -167 506 -199 l 570 -248 m 514 351 q 346 467 456 467 q 172 351 224 467 l 514 351 z "},"Ě":{"ha":608,"x_min":81,"x_max":559,"o":"m 81 864 l 559 864 l 559 746 l 197 746 l 197 530 l 559 530 l 559 414 l 197 414 l 197 117 l 559 117 l 559 0 l 81 0 l 81 864 m 337 1023 l 412 1139 l 551 1139 l 399 950 l 268 950 l 122 1139 l 261 1139 l 337 1023 z "},"ě":{"ha":694,"x_min":53,"x_max":639,"o":"m 637 257 l 160 257 q 231 131 176 171 q 351 92 286 92 q 519 175 452 92 l 606 110 q 346 -16 509 -16 q 137 70 221 -16 q 53 282 53 155 q 138 488 53 401 q 346 575 223 575 q 553 487 467 575 q 637 257 639 398 m 172 351 l 514 351 q 346 467 457 467 q 172 351 224 467 m 348 736 l 423 851 l 562 851 l 410 663 l 279 663 l 133 851 l 272 851 l 348 736 z "},"Ĺ":{"ha":534,"x_min":107,"x_max":505,"o":"m 107 864 l 224 864 l 224 117 l 505 117 l 505 0 l 107 0 l 107 864 m 207 950 l 297 1139 l 457 1139 l 307 950 l 207 950 z "},"ĺ":{"ha":304,"x_min":75,"x_max":326,"o":"m 96 880 l 214 880 l 214 0 l 96 0 l 96 880 m 75 968 l 165 1156 l 326 1156 l 176 968 l 75 968 z "},"Ľ":{"ha":534,"x_min":98,"x_max":528,"o":"m 107 864 l 224 864 l 224 117 l 505 117 l 505 0 l 107 0 l 107 864 m 313 1023 l 389 1139 l 528 1139 l 375 950 l 244 950 l 98 1139 l 237 1139 l 313 1023 z "},"ľ":{"ha":482,"x_min":96,"x_max":427,"o":"m 96 880 l 214 880 l 214 0 l 96 0 l 96 880 m 427 755 q 355 606 427 675 l 313 646 q 366 759 366 701 l 305 759 l 305 880 l 427 880 l 427 755 z "},"Ń":{"ha":926,"x_min":83,"x_max":840,"o":"m 83 899 l 722 241 l 722 864 l 840 864 l 840 -40 l 201 614 l 201 0 l 83 0 l 83 899 m 364 951 l 454 1139 l 614 1139 l 465 951 l 364 951 z "},"ń":{"ha":608,"x_min":57,"x_max":541,"o":"m 57 0 l 57 559 l 172 559 l 172 467 q 264 549 223 523 q 357 575 306 575 q 487 525 433 575 q 541 404 541 475 l 541 0 l 422 0 l 422 370 q 393 445 422 415 q 318 475 363 475 q 216 425 259 475 q 174 304 174 375 l 174 0 l 57 0 m 224 663 l 314 851 l 474 851 l 324 663 l 224 663 z "},"Ň":{"ha":926,"x_min":83,"x_max":840,"o":"m 83 899 l 722 241 l 722 864 l 840 864 l 840 -40 l 201 614 l 201 0 l 83 0 l 83 899 m 460 1024 l 536 1139 l 675 1139 l 522 951 l 391 951 l 245 1139 l 385 1139 l 460 1024 z "},"ň":{"ha":608,"x_min":57,"x_max":541,"o":"m 57 0 l 57 559 l 172 559 l 172 467 q 264 549 223 523 q 357 575 306 575 q 487 525 433 575 q 541 404 541 475 l 541 0 l 422 0 l 422 370 q 393 445 422 415 q 318 475 363 475 q 216 425 259 475 q 174 304 174 375 l 174 0 l 57 0 m 313 736 l 389 851 l 528 851 l 375 663 l 244 663 l 98 851 l 237 851 l 313 736 z "},"Ő":{"ha":1071,"x_min":54,"x_max":1007,"o":"m 54 437 q 195 758 54 625 q 534 892 336 892 q 867 757 728 892 q 1007 437 1007 623 q 869 106 1007 241 q 530 -29 731 -29 q 193 107 332 -29 q 54 437 54 243 m 882 432 q 779 673 882 575 q 525 771 675 771 q 280 671 382 771 q 178 432 178 572 q 282 192 178 290 q 539 94 387 94 q 780 194 679 94 q 882 432 882 294 m 353 950 l 436 1139 l 595 1139 l 452 950 l 353 950 m 589 950 l 675 1139 l 832 1139 l 692 950 l 589 950 z "},"ő":{"ha":694,"x_min":47,"x_max":650,"o":"m 47 282 q 138 486 47 397 q 346 575 229 575 q 557 487 467 575 q 647 282 647 399 q 558 74 647 164 q 354 -16 470 -16 q 139 73 230 -16 q 47 282 47 162 m 533 282 q 479 406 533 353 q 350 458 425 458 q 218 405 273 458 q 163 278 163 352 q 219 155 163 208 q 350 102 275 102 q 478 156 423 102 q 533 282 533 210 m 171 663 l 254 851 l 413 851 l 270 663 l 171 663 m 408 663 l 493 851 l 650 851 l 510 663 l 408 663 z "},"Ŕ":{"ha":694,"x_min":109,"x_max":628,"o":"m 109 864 l 296 864 q 523 794 435 864 q 611 616 611 725 q 554 463 611 530 q 376 370 497 397 l 628 0 l 493 0 l 253 355 l 227 355 l 227 0 l 109 0 l 109 864 m 227 760 l 227 458 q 488 610 488 453 q 457 700 488 665 q 376 747 427 734 q 227 760 325 760 m 252 950 l 342 1139 l 502 1139 l 352 950 l 252 950 z "},"ŕ":{"ha":463,"x_min":94,"x_max":433,"o":"m 210 559 l 210 444 l 210 444 q 287 544 249 513 q 385 575 324 575 q 433 567 401 575 l 397 449 q 353 456 363 456 q 253 414 293 456 q 212 310 212 372 l 212 0 l 94 0 l 94 559 l 210 559 m 178 663 l 268 851 l 428 851 l 278 663 l 178 663 z "},"Ř":{"ha":694,"x_min":109,"x_max":628,"o":"m 109 864 l 296 864 q 523 794 435 864 q 611 616 611 725 q 554 463 611 530 q 376 370 497 397 l 628 0 l 493 0 l 253 355 l 227 355 l 227 0 l 109 0 l 109 864 m 227 760 l 227 458 q 488 610 488 453 q 457 700 488 665 q 376 747 427 734 q 227 760 325 760 m 337 1023 l 412 1139 l 551 1139 l 399 950 l 268 950 l 122 1139 l 261 1139 l 337 1023 z "},"ř":{"ha":463,"x_min":49,"x_max":478,"o":"m 210 559 l 210 444 l 210 444 q 287 544 249 513 q 385 575 324 575 q 433 567 401 575 l 397 449 q 353 456 363 456 q 253 414 293 456 q 212 310 212 372 l 212 0 l 94 0 l 94 559 l 210 559 m 264 736 l 339 851 l 478 851 l 326 663 l 195 663 l 49 851 l 188 851 l 264 736 z "},"Ś":{"ha":694,"x_min":52,"x_max":639,"o":"m 618 768 l 522 692 q 453 750 484 731 q 364 770 422 770 q 261 741 300 770 q 221 667 221 712 q 256 597 221 627 q 374 531 290 567 q 504 465 457 496 q 580 397 550 434 q 624 318 610 359 q 639 231 639 277 q 561 47 639 123 q 371 -29 482 -29 q 179 30 262 -29 q 52 208 96 90 l 170 241 q 367 96 234 96 q 474 134 431 96 q 517 232 517 173 q 494 303 517 267 q 439 361 472 338 q 333 414 406 385 q 221 468 260 444 q 153 527 182 493 q 112 595 125 562 q 98 668 98 629 q 173 826 98 761 q 354 892 248 892 q 497 861 425 892 q 618 768 570 831 m 289 950 l 379 1139 l 539 1139 l 389 950 l 289 950 z "},"ś":{"ha":463,"x_min":35,"x_max":422,"o":"m 416 493 l 338 424 q 285 457 307 446 q 232 468 262 468 q 160 415 160 468 q 251 341 160 377 q 382 263 342 306 q 422 160 422 220 q 365 37 422 90 q 229 -16 307 -16 q 35 94 111 -16 l 127 139 q 229 92 176 92 q 293 112 266 92 q 321 158 321 132 q 224 242 321 205 q 91 318 128 279 q 54 412 54 356 q 107 529 54 482 q 239 575 159 575 q 416 493 318 575 m 167 663 l 257 851 l 417 851 l 267 663 l 167 663 z "},"Ş":{"ha":694,"x_min":52,"x_max":639,"o":"m 618 768 l 522 692 q 453 750 484 731 q 364 770 422 770 q 261 741 300 770 q 221 667 221 712 q 256 597 221 627 q 374 531 290 567 q 504 465 457 496 q 580 397 550 434 q 624 318 610 359 q 639 231 639 277 q 561 47 639 123 q 371 -29 482 -29 q 179 30 262 -29 q 52 208 96 90 l 170 241 q 367 96 234 96 q 474 134 431 96 q 517 232 517 173 q 494 303 517 267 q 439 361 472 338 q 333 414 406 385 q 221 468 260 444 q 153 527 182 493 q 112 595 125 562 q 98 668 98 629 q 173 826 98 761 q 354 892 248 892 q 497 861 425 892 q 618 768 570 831 m 425 -237 q 353 -386 425 -316 l 311 -345 q 364 -233 364 -291 l 303 -233 l 303 -112 l 425 -112 l 425 -237 z "},"ş":{"ha":463,"x_min":35,"x_max":422,"o":"m 416 493 l 338 424 q 285 457 307 446 q 232 468 262 468 q 160 415 160 468 q 251 341 160 377 q 382 263 342 306 q 422 160 422 220 q 365 37 422 90 q 229 -16 307 -16 q 35 94 111 -16 l 127 139 q 229 92 176 92 q 293 112 266 92 q 321 158 321 132 q 224 242 321 205 q 91 318 128 279 q 54 412 54 356 q 107 529 54 482 q 239 575 159 575 q 416 493 318 575 m 289 -237 q 217 -386 289 -316 l 174 -345 q 228 -233 228 -291 l 167 -233 l 167 -112 l 289 -112 l 289 -237 z "},"Ţ":{"ha":608,"x_min":37,"x_max":566,"o":"m 37 864 l 566 864 l 566 746 l 359 746 l 359 0 l 243 0 l 243 746 l 37 746 l 37 864 m 365 -237 q 293 -386 365 -316 l 250 -345 q 304 -233 304 -291 l 243 -233 l 243 -112 l 365 -112 l 365 -237 z "},"ţ":{"ha":376,"x_min":24,"x_max":351,"o":"m 117 722 l 235 722 l 235 559 l 351 559 l 351 452 l 235 452 l 235 0 l 117 0 l 117 452 l 24 452 l 24 561 l 117 561 l 117 722 m 235 -237 q 163 -386 235 -316 l 120 -345 q 174 -233 174 -291 l 113 -233 l 113 -112 l 235 -112 l 235 -237 z "},"Ť":{"ha":608,"x_min":37,"x_max":566,"o":"m 37 864 l 566 864 l 566 746 l 359 746 l 359 0 l 243 0 l 243 746 l 37 746 l 37 864 m 307 1023 l 382 1139 l 521 1139 l 368 950 l 237 950 l 92 1139 l 231 1139 l 307 1023 z "},"ť":{"ha":553,"x_min":24,"x_max":498,"o":"m 117 722 l 235 722 l 235 559 l 351 559 l 351 452 l 235 452 l 235 0 l 117 0 l 117 452 l 24 452 l 24 561 l 117 561 l 117 722 m 498 755 q 427 606 498 675 l 384 646 q 437 759 437 701 l 376 759 l 376 880 l 498 880 l 498 755 z "},"Ů":{"ha":839,"x_min":86,"x_max":757,"o":"m 86 863 l 204 863 l 204 332 q 261 149 204 214 q 421 85 317 85 q 582 144 524 85 q 639 311 639 203 l 639 863 l 757 863 l 757 319 q 666 66 757 161 q 425 -29 576 -29 q 179 67 271 -29 q 86 351 86 163 l 86 863 m 420 920 q 334 958 370 920 q 298 1048 298 995 q 335 1133 298 1097 q 420 1168 371 1168 q 507 1132 471 1168 q 543 1045 543 1096 q 507 957 543 994 q 420 920 471 920 m 422 1119 q 371 1098 393 1119 q 350 1046 350 1076 q 371 994 350 1015 q 422 972 392 972 q 473 994 451 972 q 494 1045 494 1015 q 473 1098 494 1076 q 422 1119 452 1119 z "},"ů":{"ha":608,"x_min":58,"x_max":545,"o":"m 58 559 l 176 559 l 176 244 q 304 98 176 98 q 395 137 361 98 q 428 244 428 176 l 428 559 l 545 559 l 545 225 q 476 52 545 120 q 301 -16 408 -16 q 125 52 193 -16 q 58 229 58 120 l 58 559 m 307 632 q 220 669 256 632 q 184 760 184 707 q 221 844 184 808 q 307 880 257 880 q 393 844 357 880 q 429 757 429 808 q 393 669 429 705 q 307 632 357 632 m 308 831 q 257 809 279 831 q 236 758 236 788 q 257 705 236 727 q 308 684 278 684 q 359 705 337 684 q 380 757 380 727 q 359 809 380 788 q 308 831 338 831 z "},"Ű":{"ha":839,"x_min":86,"x_max":757,"o":"m 86 863 l 204 863 l 204 332 q 261 149 204 214 q 421 85 317 85 q 582 144 524 85 q 639 311 639 203 l 639 863 l 757 863 l 757 319 q 666 66 757 161 q 425 -29 576 -29 q 179 67 271 -29 q 86 351 86 163 l 86 863 m 224 950 l 307 1139 l 466 1139 l 323 950 l 224 950 m 460 950 l 546 1139 l 703 1139 l 563 950 l 460 950 z "},"ű":{"ha":608,"x_min":58,"x_max":596,"o":"m 58 559 l 176 559 l 176 244 q 304 98 176 98 q 395 137 361 98 q 428 244 428 176 l 428 559 l 545 559 l 545 225 q 476 52 545 120 q 301 -16 408 -16 q 125 52 193 -16 q 58 229 58 120 l 58 559 m 117 663 l 200 851 l 359 851 l 216 663 l 117 663 m 353 663 l 439 851 l 596 851 l 456 663 l 353 663 z "},"Ź":{"ha":694,"x_min":45,"x_max":648,"o":"m 65 864 l 648 864 l 236 117 l 640 117 l 640 0 l 45 0 l 454 746 l 65 746 l 65 864 m 273 950 l 363 1139 l 524 1139 l 374 950 l 273 950 z "},"ź":{"ha":608,"x_min":28,"x_max":564,"o":"m 35 559 l 564 559 l 227 103 l 561 103 l 561 0 l 28 0 l 368 457 l 35 457 l 35 559 m 221 663 l 311 851 l 471 851 l 321 663 l 221 663 z "},"Ż":{"ha":694,"x_min":45,"x_max":648,"o":"m 65 864 l 648 864 l 236 117 l 640 117 l 640 0 l 45 0 l 454 746 l 65 746 l 65 864 m 277 1031 q 298 1083 277 1061 q 348 1104 319 1104 q 399 1083 378 1104 q 420 1031 420 1062 q 399 982 420 1002 q 348 961 378 961 q 298 982 319 961 q 277 1031 277 1003 z "},"ż":{"ha":608,"x_min":28,"x_max":564,"o":"m 35 559 l 564 559 l 227 103 l 561 103 l 561 0 l 28 0 l 368 457 l 35 457 l 35 559 m 222 732 q 243 783 222 762 q 293 804 264 804 q 344 783 323 804 q 365 732 365 762 q 344 682 365 703 q 293 661 323 661 q 243 682 264 661 q 222 732 222 703 z "},"¤":{"ha":926,"x_min":132,"x_max":793,"o":"m 132 720 l 192 781 l 279 693 q 358 741 322 726 q 471 755 394 755 q 567 741 532 755 q 647 693 603 726 l 733 781 l 793 720 l 707 633 q 755 551 740 587 q 770 444 770 515 q 755 345 770 380 q 707 267 741 310 l 793 179 l 733 119 l 647 205 q 563 158 600 172 q 463 143 527 143 q 356 158 391 143 q 279 205 321 173 l 193 119 l 132 179 l 220 267 q 173 352 188 315 q 158 454 158 389 q 173 555 158 519 q 220 633 188 590 l 132 720 m 465 669 q 308 605 374 669 q 243 449 243 540 q 308 293 243 358 q 463 228 372 228 q 618 293 553 228 q 684 449 684 358 q 620 605 684 540 q 465 669 555 669 z "}}}
